<svg xmlns="http://www.w3.org/2000/svg" xmlns:xlink="http://www.w3.org/1999/xlink" width="545" zoomAndPan="magnify" viewBox="0 0 408.75 111.749996" height="149" preserveAspectRatio="xMidYMid meet" version="1.0"><defs><g/><clipPath id="6d9801cdf7"><rect x="0" width="179" y="0" height="65"/></clipPath><clipPath id="746b5c861c"><path d="M 366 17 L 408.167969 17 L 408.167969 111.5 L 366 111.5 Z M 366 17 " clip-rule="nonzero"/></clipPath><clipPath id="e136f3b756"><path d="M 389.132812 34.394531 L 394.816406 34.394531 L 394.816406 35.40625 L 389.132812 35.40625 Z M 389.132812 34.394531 " clip-rule="nonzero"/></clipPath><clipPath id="a3486d1274"><path d="M 391 3.230469 L 393 3.230469 L 393 9 L 391 9 Z M 391 3.230469 " clip-rule="nonzero"/></clipPath><clipPath id="8b6d7cbc0b"><path d="M 402.179688 18.703125 L 407.914062 18.703125 L 407.914062 19.636719 L 402.179688 19.636719 Z M 402.179688 18.703125 " clip-rule="nonzero"/></clipPath><clipPath id="f07dc0fd5e"><path d="M 376.03125 18 L 382 18 L 382 20 L 376.03125 20 Z M 376.03125 18 " clip-rule="nonzero"/></clipPath><clipPath id="5ba0534ed6"><rect x="0" width="144" y="0" height="66"/></clipPath><clipPath id="f4592a4445"><rect x="0" width="182" y="0" height="15"/></clipPath></defs><g transform="matrix(1, 0, 0, 1, 53, 27)"><g clip-path="url(#6d9801cdf7)"><g fill="#ffcc00" fill-opacity="1"><g transform="translate(1.283262, 47.667294)"><g><path d="M 19.5625 -16.484375 C 20.726562 -16.296875 21.789062 -15.820312 22.75 -15.0625 C 23.71875 -14.300781 24.484375 -13.351562 25.046875 -12.21875 C 25.617188 -11.082031 25.90625 -9.875 25.90625 -8.59375 C 25.90625 -6.96875 25.488281 -5.503906 24.65625 -4.203125 C 23.832031 -2.898438 22.628906 -1.875 21.046875 -1.125 C 19.472656 -0.375 17.613281 0 15.46875 0 L 3.53125 0 L 3.53125 -32 L 15.015625 -32 C 17.191406 -32 19.046875 -31.640625 20.578125 -30.921875 C 22.109375 -30.203125 23.253906 -29.226562 24.015625 -28 C 24.785156 -26.78125 25.171875 -25.40625 25.171875 -23.875 C 25.171875 -21.976562 24.65625 -20.410156 23.625 -19.171875 C 22.601562 -17.929688 21.25 -17.035156 19.5625 -16.484375 Z M 7.71875 -18.1875 L 14.734375 -18.1875 C 16.703125 -18.1875 18.21875 -18.644531 19.28125 -19.5625 C 20.351562 -20.476562 20.890625 -21.75 20.890625 -23.375 C 20.890625 -25 20.351562 -26.269531 19.28125 -27.1875 C 18.21875 -28.101562 16.675781 -28.5625 14.65625 -28.5625 L 7.71875 -28.5625 Z M 15.109375 -3.4375 C 17.191406 -3.4375 18.8125 -3.925781 19.96875 -4.90625 C 21.132812 -5.894531 21.71875 -7.257812 21.71875 -9 C 21.71875 -10.78125 21.101562 -12.179688 19.875 -13.203125 C 18.65625 -14.222656 17.019531 -14.734375 14.96875 -14.734375 L 7.71875 -14.734375 L 7.71875 -3.4375 Z M 15.109375 -3.4375 "/></g></g></g><g fill="#ffcc00" fill-opacity="1"><g transform="translate(32.232055, 47.667294)"><g><path d="M 20.390625 0 L 12.765625 -13.09375 L 7.71875 -13.09375 L 7.71875 0 L 3.53125 0 L 3.53125 -32 L 13.875 -32 C 16.289062 -32 18.332031 -31.585938 20 -30.765625 C 21.664062 -29.941406 22.910156 -28.820312 23.734375 -27.40625 C 24.566406 -26 24.984375 -24.394531 24.984375 -22.59375 C 24.984375 -20.382812 24.347656 -18.4375 23.078125 -16.75 C 21.804688 -15.070312 19.898438 -13.957031 17.359375 -13.40625 L 25.390625 0 Z M 7.71875 -16.4375 L 13.875 -16.4375 C 16.132812 -16.4375 17.832031 -16.992188 18.96875 -18.109375 C 20.101562 -19.234375 20.671875 -20.726562 20.671875 -22.59375 C 20.671875 -24.488281 20.109375 -25.957031 18.984375 -27 C 17.867188 -28.039062 16.164062 -28.5625 13.875 -28.5625 L 7.71875 -28.5625 Z M 7.71875 -16.4375 "/></g></g></g><g fill="#ffcc00" fill-opacity="1"><g transform="translate(62.951271, 47.667294)"><g><path d="M 7.71875 -32 L 7.71875 0 L 3.53125 0 L 3.53125 -32 Z M 7.71875 -32 "/></g></g></g><g fill="#ffcc00" fill-opacity="1"><g transform="translate(77.048454, 47.667294)"><g><path d="M 27.78125 -22.734375 C 26.894531 -24.597656 25.609375 -26.039062 23.921875 -27.0625 C 22.242188 -28.09375 20.285156 -28.609375 18.046875 -28.609375 C 15.804688 -28.609375 13.789062 -28.09375 12 -27.0625 C 10.21875 -26.039062 8.8125 -24.570312 7.78125 -22.65625 C 6.757812 -20.75 6.25 -18.539062 6.25 -16.03125 C 6.25 -13.519531 6.757812 -11.3125 7.78125 -9.40625 C 8.8125 -7.507812 10.21875 -6.046875 12 -5.015625 C 13.789062 -3.992188 15.804688 -3.484375 18.046875 -3.484375 C 21.171875 -3.484375 23.742188 -4.414062 25.765625 -6.28125 C 27.785156 -8.15625 28.960938 -10.6875 29.296875 -13.875 L 16.53125 -13.875 L 16.53125 -17.265625 L 33.75 -17.265625 L 33.75 -14.046875 C 33.507812 -11.421875 32.679688 -9.007812 31.265625 -6.8125 C 29.859375 -4.625 28.003906 -2.894531 25.703125 -1.625 C 23.410156 -0.351562 20.859375 0.28125 18.046875 0.28125 C 15.078125 0.28125 12.367188 -0.414062 9.921875 -1.8125 C 7.472656 -3.207031 5.535156 -5.144531 4.109375 -7.625 C 2.679688 -10.101562 1.96875 -12.90625 1.96875 -16.03125 C 1.96875 -19.144531 2.679688 -21.953125 4.109375 -24.453125 C 5.535156 -26.953125 7.472656 -28.894531 9.921875 -30.28125 C 12.367188 -31.675781 15.078125 -32.375 18.046875 -32.375 C 21.441406 -32.375 24.445312 -31.53125 27.0625 -29.84375 C 29.6875 -28.164062 31.59375 -25.796875 32.78125 -22.734375 Z M 27.78125 -22.734375 "/></g></g></g><g fill="#ffcc00" fill-opacity="1"><g transform="translate(115.573584, 47.667294)"><g><path d="M 28.203125 -32 L 28.203125 0 L 24.015625 0 L 24.015625 -14.515625 L 7.71875 -14.515625 L 7.71875 0 L 3.53125 0 L 3.53125 -32 L 7.71875 -32 L 7.71875 -17.953125 L 24.015625 -17.953125 L 24.015625 -32 Z M 28.203125 -32 "/></g></g></g><g fill="#ffcc00" fill-opacity="1"><g transform="translate(150.149836, 47.667294)"><g><path d="M 23.234375 -32 L 23.234375 -28.609375 L 14.515625 -28.609375 L 14.515625 0 L 10.328125 0 L 10.328125 -28.609375 L 1.5625 -28.609375 L 1.5625 -32 Z M 23.234375 -32 "/></g></g></g></g></g><path stroke-linecap="butt" transform="matrix(0, -0.748326, 0.748326, 0, 193.799111, 34.874815)" fill="none" stroke-linejoin="miter" d="M -0.000247594 2.998503 L 22.55009 2.998503 " stroke="#ffcc00" stroke-width="6" stroke-opacity="1" stroke-miterlimit="4"/><path stroke-linecap="butt" transform="matrix(-0.748326, 0, 0, -0.748326, 372.805782, 21.660789)" fill="none" stroke-linejoin="miter" d="M 0.00146221 3.002337 L 239.363897 3.002337 " stroke="#ffcc00" stroke-width="6" stroke-opacity="1" stroke-miterlimit="4"/><g clip-path="url(#746b5c861c)"><path stroke-linecap="butt" transform="matrix(0.000173499, -0.748326, 0.748326, 0.000173499, 389.722711, 99.094328)" fill="none" stroke-linejoin="miter" d="M 0.00146868 3.001418 L 75.440699 2.999588 " stroke="#ffcc00" stroke-width="6" stroke-opacity="1" stroke-miterlimit="4"/></g><path stroke-linecap="butt" transform="matrix(0.00000000130607, -0.748326, 0.748326, 0.00000000130607, 262.661604, 99.95866)" fill="none" stroke-linejoin="miter" d="M 0.00217681 2.999557 L 14.043938 2.999557 " stroke="#ffcc00" stroke-width="6" stroke-opacity="1" stroke-miterlimit="4"/><path stroke-linecap="butt" transform="matrix(-0.748326, -0.00000000130607, 0.00000000130607, -0.748326, 394.336052, 99.848552)" fill="none" stroke-linejoin="miter" d="M 0.000153312 2.997469 L 172.969593 2.997469 " stroke="#ffcc00" stroke-width="6" stroke-opacity="1" stroke-miterlimit="4"/><path fill="#ffcc00" d="M 391.96875 11.894531 C 390.285156 11.894531 388.699219 12.519531 387.46875 13.679688 C 386.128906 14.9375 385.394531 16.640625 385.394531 18.476562 C 385.394531 19.964844 385.878906 21.367188 386.792969 22.535156 C 388.046875 24.132812 388.710938 25.980469 388.710938 27.878906 L 388.710938 29.039062 C 388.710938 29.230469 388.871094 29.390625 389.066406 29.390625 L 394.894531 29.390625 C 395.070312 29.390625 395.210938 29.246094 395.210938 29.070312 L 395.210938 27.90625 C 395.210938 25.992188 395.882812 24.109375 397.097656 22.605469 C 398.125 21.332031 398.640625 19.722656 398.542969 18.078125 C 398.351562 14.820312 395.648438 12.109375 392.390625 11.910156 C 392.25 11.898438 392.109375 11.894531 391.96875 11.894531 Z M 394.894531 30.320312 L 389.066406 30.320312 C 388.359375 30.320312 387.78125 29.746094 387.78125 29.039062 L 387.78125 27.878906 C 387.78125 26.191406 387.1875 24.542969 386.0625 23.109375 C 385.015625 21.777344 384.464844 20.175781 384.464844 18.476562 C 384.464844 16.414062 385.328125 14.417969 386.832031 13.003906 C 388.355469 11.570312 390.351562 10.851562 392.449219 10.980469 C 396.230469 11.214844 399.246094 14.242188 399.46875 18.023438 C 399.582031 19.902344 398.992188 21.734375 397.820312 23.1875 C 396.738281 24.527344 396.140625 26.203125 396.140625 27.90625 L 396.140625 29.070312 C 396.140625 29.757812 395.582031 30.320312 394.894531 30.320312 " fill-opacity="1" fill-rule="nonzero"/><path fill="#ffcc00" d="M 395.207031 31.546875 L 388.742188 31.546875 C 388.484375 31.546875 388.277344 31.335938 388.277344 31.082031 C 388.277344 30.824219 388.484375 30.617188 388.742188 30.617188 L 395.207031 30.617188 C 395.460938 30.617188 395.671875 30.824219 395.671875 31.082031 C 395.671875 31.335938 395.460938 31.546875 395.207031 31.546875 " fill-opacity="1" fill-rule="nonzero"/><path fill="#ffcc00" d="M 395.207031 32.785156 L 388.742188 32.785156 C 388.484375 32.785156 388.277344 32.574219 388.277344 32.320312 C 388.277344 32.0625 388.484375 31.855469 388.742188 31.855469 L 395.207031 31.855469 C 395.460938 31.855469 395.671875 32.0625 395.671875 32.320312 C 395.671875 32.574219 395.460938 32.785156 395.207031 32.785156 " fill-opacity="1" fill-rule="nonzero"/><path fill="#ffcc00" d="M 395.207031 34.019531 L 388.742188 34.019531 C 388.484375 34.019531 388.277344 33.8125 388.277344 33.558594 C 388.277344 33.300781 388.484375 33.09375 388.742188 33.09375 L 395.207031 33.09375 C 395.460938 33.09375 395.671875 33.300781 395.671875 33.558594 C 395.671875 33.8125 395.460938 34.019531 395.207031 34.019531 " fill-opacity="1" fill-rule="nonzero"/><g clip-path="url(#e136f3b756)"><path fill="#ffcc00" d="M 394.398438 35.59375 L 389.550781 35.59375 L 389.140625 34.398438 L 394.808594 34.398438 L 394.398438 35.59375 " fill-opacity="1" fill-rule="nonzero"/></g><g clip-path="url(#a3486d1274)"><path fill="#ffcc00" d="M 391.972656 8.960938 C 391.71875 8.960938 391.511719 8.753906 391.511719 8.496094 L 391.511719 3.691406 C 391.511719 3.4375 391.71875 3.230469 391.972656 3.230469 C 392.230469 3.230469 392.4375 3.4375 392.4375 3.691406 L 392.4375 8.496094 C 392.4375 8.753906 392.230469 8.960938 391.972656 8.960938 " fill-opacity="1" fill-rule="nonzero"/></g><path fill="#ffcc00" d="M 399.519531 12.085938 C 399.402344 12.085938 399.28125 12.042969 399.191406 11.953125 C 399.011719 11.769531 399.011719 11.476562 399.191406 11.292969 L 402.589844 7.898438 C 402.769531 7.714844 403.066406 7.714844 403.246094 7.898438 C 403.425781 8.078125 403.425781 8.375 403.246094 8.554688 L 399.847656 11.953125 C 399.757812 12.042969 399.640625 12.085938 399.519531 12.085938 " fill-opacity="1" fill-rule="nonzero"/><g clip-path="url(#8b6d7cbc0b)"><path fill="#ffcc00" d="M 407.449219 19.632812 L 402.648438 19.632812 C 402.390625 19.632812 402.183594 19.425781 402.183594 19.167969 C 402.183594 18.914062 402.390625 18.707031 402.648438 18.707031 L 407.449219 18.707031 C 407.707031 18.707031 407.914062 18.914062 407.914062 19.167969 C 407.914062 19.425781 407.707031 19.632812 407.449219 19.632812 " fill-opacity="1" fill-rule="nonzero"/></g><path fill="#ffcc00" d="M 402.917969 30.578125 C 402.800781 30.578125 402.679688 30.53125 402.589844 30.441406 L 399.191406 27.042969 C 399.011719 26.863281 399.011719 26.570312 399.191406 26.386719 C 399.375 26.207031 399.667969 26.207031 399.847656 26.386719 L 403.246094 29.785156 C 403.425781 29.964844 403.425781 30.261719 403.246094 30.441406 C 403.15625 30.53125 403.035156 30.578125 402.917969 30.578125 " fill-opacity="1" fill-rule="nonzero"/><path fill="#ffcc00" d="M 381.03125 30.578125 C 380.910156 30.578125 380.792969 30.53125 380.703125 30.441406 C 380.519531 30.261719 380.519531 29.964844 380.703125 29.785156 L 384.097656 26.386719 C 384.28125 26.207031 384.574219 26.207031 384.753906 26.386719 C 384.9375 26.570312 384.9375 26.863281 384.753906 27.042969 L 381.359375 30.441406 C 381.269531 30.53125 381.148438 30.578125 381.03125 30.578125 " fill-opacity="1" fill-rule="nonzero"/><g clip-path="url(#f07dc0fd5e)"><path fill="#ffcc00" d="M 381.300781 19.632812 L 376.496094 19.632812 C 376.242188 19.632812 376.03125 19.425781 376.03125 19.167969 C 376.03125 18.914062 376.242188 18.707031 376.496094 18.707031 L 381.300781 18.707031 C 381.558594 18.707031 381.765625 18.914062 381.765625 19.167969 C 381.765625 19.425781 381.558594 19.632812 381.300781 19.632812 " fill-opacity="1" fill-rule="nonzero"/></g><path fill="#ffcc00" d="M 384.425781 12.085938 C 384.308594 12.085938 384.191406 12.042969 384.097656 11.953125 L 380.703125 8.554688 C 380.519531 8.375 380.519531 8.078125 380.703125 7.898438 C 380.882812 7.714844 381.175781 7.714844 381.359375 7.898438 L 384.753906 11.292969 C 384.9375 11.476562 384.9375 11.769531 384.753906 11.953125 C 384.664062 12.042969 384.546875 12.085938 384.425781 12.085938 " fill-opacity="1" fill-rule="nonzero"/><g transform="matrix(1, 0, 0, 1, 232, 20)"><g clip-path="url(#5ba0534ed6)"><g fill="#ffffff" fill-opacity="1"><g transform="translate(0.230508, 48.286438)"><g><path d="M 12.671875 0.421875 C 10.710938 0.421875 8.953125 0.0859375 7.390625 -0.578125 C 5.828125 -1.253906 4.59375 -2.191406 3.6875 -3.390625 C 2.789062 -4.585938 2.296875 -5.96875 2.203125 -7.53125 L 6.59375 -7.53125 C 6.71875 -6.25 7.316406 -5.203125 8.390625 -4.390625 C 9.472656 -3.585938 10.882812 -3.1875 12.625 -3.1875 C 14.25 -3.1875 15.523438 -3.539062 16.453125 -4.25 C 17.390625 -4.96875 17.859375 -5.875 17.859375 -6.96875 C 17.859375 -8.09375 17.359375 -8.925781 16.359375 -9.46875 C 15.367188 -10.007812 13.828125 -10.546875 11.734375 -11.078125 C 9.835938 -11.578125 8.285156 -12.082031 7.078125 -12.59375 C 5.878906 -13.113281 4.851562 -13.878906 4 -14.890625 C 3.144531 -15.910156 2.71875 -17.242188 2.71875 -18.890625 C 2.71875 -20.203125 3.101562 -21.398438 3.875 -22.484375 C 4.65625 -23.578125 5.765625 -24.441406 7.203125 -25.078125 C 8.640625 -25.722656 10.273438 -26.046875 12.109375 -26.046875 C 14.953125 -26.046875 17.242188 -25.328125 18.984375 -23.890625 C 20.734375 -22.460938 21.671875 -20.5 21.796875 -18 L 17.53125 -18 C 17.4375 -19.34375 16.898438 -20.421875 15.921875 -21.234375 C 14.941406 -22.046875 13.625 -22.453125 11.96875 -22.453125 C 10.445312 -22.453125 9.234375 -22.125 8.328125 -21.46875 C 7.421875 -20.8125 6.96875 -19.953125 6.96875 -18.890625 C 6.96875 -18.046875 7.238281 -17.351562 7.78125 -16.8125 C 8.332031 -16.269531 9.019531 -15.832031 9.84375 -15.5 C 10.664062 -15.175781 11.8125 -14.8125 13.28125 -14.40625 C 15.125 -13.90625 16.617188 -13.410156 17.765625 -12.921875 C 18.921875 -12.441406 19.910156 -11.71875 20.734375 -10.75 C 21.566406 -9.789062 22 -8.53125 22.03125 -6.96875 C 22.03125 -5.5625 21.640625 -4.296875 20.859375 -3.171875 C 20.078125 -2.054688 18.976562 -1.175781 17.5625 -0.53125 C 16.144531 0.101562 14.515625 0.421875 12.671875 0.421875 Z M 12.671875 0.421875 "/></g></g></g><g fill="#ffffff" fill-opacity="1"><g transform="translate(27.490972, 48.286438)"><g><path d="M 7.859375 -20.90625 C 8.703125 -22.375 9.957031 -23.597656 11.625 -24.578125 C 13.289062 -25.554688 15.226562 -26.046875 17.4375 -26.046875 C 19.71875 -26.046875 21.785156 -25.5 23.640625 -24.40625 C 25.492188 -23.320312 26.953125 -21.785156 28.015625 -19.796875 C 29.078125 -17.816406 29.609375 -15.519531 29.609375 -12.90625 C 29.609375 -10.320312 29.078125 -8.015625 28.015625 -5.984375 C 26.953125 -3.960938 25.492188 -2.390625 23.640625 -1.265625 C 21.785156 -0.140625 19.71875 0.421875 17.4375 0.421875 C 15.257812 0.421875 13.335938 -0.0664062 11.671875 -1.046875 C 10.003906 -2.035156 8.734375 -3.257812 7.859375 -4.71875 L 7.859375 12.15625 L 3.59375 12.15625 L 3.59375 -25.625 L 7.859375 -25.625 Z M 25.25 -12.90625 C 25.25 -14.84375 24.859375 -16.523438 24.078125 -17.953125 C 23.304688 -19.390625 22.253906 -20.484375 20.921875 -21.234375 C 19.597656 -21.984375 18.144531 -22.359375 16.5625 -22.359375 C 15 -22.359375 13.550781 -21.972656 12.21875 -21.203125 C 10.894531 -20.441406 9.835938 -19.335938 9.046875 -17.890625 C 8.253906 -16.441406 7.859375 -14.765625 7.859375 -12.859375 C 7.859375 -10.929688 8.253906 -9.238281 9.046875 -7.78125 C 9.835938 -6.332031 10.894531 -5.226562 12.21875 -4.46875 C 13.550781 -3.707031 15 -3.328125 16.5625 -3.328125 C 18.144531 -3.328125 19.597656 -3.707031 20.921875 -4.46875 C 22.253906 -5.226562 23.304688 -6.332031 24.078125 -7.78125 C 24.859375 -9.238281 25.25 -10.945312 25.25 -12.90625 Z M 25.25 -12.90625 "/></g></g></g><g fill="#ffffff" fill-opacity="1"><g transform="translate(61.952141, 48.286438)"><g><path d="M 2.015625 -12.90625 C 2.015625 -15.519531 2.539062 -17.816406 3.59375 -19.796875 C 4.65625 -21.785156 6.113281 -23.320312 7.96875 -24.40625 C 9.820312 -25.5 11.890625 -26.046875 14.171875 -26.046875 C 16.410156 -26.046875 18.359375 -25.5625 20.015625 -24.59375 C 21.671875 -23.632812 22.898438 -22.421875 23.703125 -20.953125 L 23.703125 -25.625 L 28.015625 -25.625 L 28.015625 0 L 23.703125 0 L 23.703125 -4.765625 C 22.867188 -3.273438 21.613281 -2.035156 19.9375 -1.046875 C 18.269531 -0.0664062 16.332031 0.421875 14.125 0.421875 C 11.84375 0.421875 9.78125 -0.140625 7.9375 -1.265625 C 6.101562 -2.390625 4.65625 -3.960938 3.59375 -5.984375 C 2.539062 -8.015625 2.015625 -10.320312 2.015625 -12.90625 Z M 23.703125 -12.859375 C 23.703125 -14.796875 23.3125 -16.476562 22.53125 -17.90625 C 21.757812 -19.34375 20.707031 -20.441406 19.375 -21.203125 C 18.050781 -21.972656 16.597656 -22.359375 15.015625 -22.359375 C 13.421875 -22.359375 11.96875 -21.984375 10.65625 -21.234375 C 9.351562 -20.484375 8.3125 -19.390625 7.53125 -17.953125 C 6.75 -16.523438 6.359375 -14.84375 6.359375 -12.90625 C 6.359375 -10.945312 6.75 -9.238281 7.53125 -7.78125 C 8.3125 -6.332031 9.351562 -5.226562 10.65625 -4.46875 C 11.96875 -3.707031 13.421875 -3.328125 15.015625 -3.328125 C 16.597656 -3.328125 18.050781 -3.707031 19.375 -4.46875 C 20.707031 -5.226562 21.757812 -6.332031 22.53125 -7.78125 C 23.3125 -9.238281 23.703125 -10.929688 23.703125 -12.859375 Z M 23.703125 -12.859375 "/></g></g></g><g fill="#ffffff" fill-opacity="1"><g transform="translate(96.41331, 48.286438)"><g><path d="M 7.859375 -21.46875 C 8.609375 -22.925781 9.675781 -24.0625 11.0625 -24.875 C 12.445312 -25.6875 14.140625 -26.09375 16.140625 -26.09375 L 16.140625 -21.703125 L 15.015625 -21.703125 C 10.242188 -21.703125 7.859375 -19.113281 7.859375 -13.9375 L 7.859375 0 L 3.59375 0 L 3.59375 -25.625 L 7.859375 -25.625 Z M 7.859375 -21.46875 "/></g></g></g><g fill="#ffffff" fill-opacity="1"><g transform="translate(116.706866, 48.286438)"><g><path d="M 17.90625 0 L 7.859375 -11.3125 L 7.859375 0 L 3.59375 0 L 3.59375 -34.609375 L 7.859375 -34.609375 L 7.859375 -14.265625 L 17.71875 -25.625 L 23.65625 -25.625 L 11.59375 -12.859375 L 23.703125 0 Z M 17.90625 0 "/></g></g></g></g></g><g transform="matrix(1, 0, 0, 1, 58, 85)"><g clip-path="url(#f4592a4445)"><g fill="#ffffff" fill-opacity="1"><g transform="translate(0.548041, 10.282199)"><g><path d="M 1.90625 -0.921875 L 4.265625 -0.921875 L 4.265625 0 L 0.75 0 L 0.75 -7 L 1.90625 -7 Z M 1.90625 -0.921875 "/></g></g></g><g fill="#ffffff" fill-opacity="1"><g transform="translate(5.470526, 10.282199)"><g><path d="M 1.34375 -6.28125 C 1.132812 -6.28125 0.957031 -6.347656 0.8125 -6.484375 C 0.675781 -6.628906 0.609375 -6.804688 0.609375 -7.015625 C 0.609375 -7.222656 0.675781 -7.394531 0.8125 -7.53125 C 0.957031 -7.675781 1.132812 -7.75 1.34375 -7.75 C 1.539062 -7.75 1.707031 -7.675781 1.84375 -7.53125 C 1.988281 -7.394531 2.0625 -7.222656 2.0625 -7.015625 C 2.0625 -6.804688 1.988281 -6.628906 1.84375 -6.484375 C 1.707031 -6.347656 1.539062 -6.28125 1.34375 -6.28125 Z M 1.90625 -5.546875 L 1.90625 0 L 0.75 0 L 0.75 -5.546875 Z M 1.90625 -5.546875 "/></g></g></g><g fill="#ffffff" fill-opacity="1"><g transform="translate(8.581059, 10.282199)"><g><path d="M 2.984375 -5.640625 C 3.410156 -5.640625 3.789062 -5.550781 4.125 -5.375 C 4.457031 -5.207031 4.71875 -4.992188 4.90625 -4.734375 L 4.90625 -5.546875 L 6.0625 -5.546875 L 6.0625 0.09375 C 6.0625 0.601562 5.953125 1.054688 5.734375 1.453125 C 5.523438 1.847656 5.21875 2.160156 4.8125 2.390625 C 4.40625 2.617188 3.921875 2.734375 3.359375 2.734375 C 2.609375 2.734375 1.984375 2.554688 1.484375 2.203125 C 0.992188 1.859375 0.710938 1.382812 0.640625 0.78125 L 1.78125 0.78125 C 1.863281 1.0625 2.046875 1.289062 2.328125 1.46875 C 2.617188 1.644531 2.960938 1.734375 3.359375 1.734375 C 3.828125 1.734375 4.203125 1.59375 4.484375 1.3125 C 4.765625 1.03125 4.90625 0.625 4.90625 0.09375 L 4.90625 -0.828125 C 4.71875 -0.566406 4.457031 -0.347656 4.125 -0.171875 C 3.789062 0.00390625 3.410156 0.09375 2.984375 0.09375 C 2.503906 0.09375 2.0625 -0.0234375 1.65625 -0.265625 C 1.257812 -0.515625 0.945312 -0.859375 0.71875 -1.296875 C 0.488281 -1.742188 0.375 -2.242188 0.375 -2.796875 C 0.375 -3.347656 0.488281 -3.835938 0.71875 -4.265625 C 0.945312 -4.703125 1.257812 -5.039062 1.65625 -5.28125 C 2.0625 -5.519531 2.503906 -5.640625 2.984375 -5.640625 Z M 4.90625 -2.78125 C 4.90625 -3.15625 4.828125 -3.484375 4.671875 -3.765625 C 4.515625 -4.054688 4.304688 -4.273438 4.046875 -4.421875 C 3.796875 -4.566406 3.523438 -4.640625 3.234375 -4.640625 C 2.929688 -4.640625 2.648438 -4.566406 2.390625 -4.421875 C 2.140625 -4.273438 1.9375 -4.0625 1.78125 -3.78125 C 1.625 -3.507812 1.546875 -3.179688 1.546875 -2.796875 C 1.546875 -2.410156 1.625 -2.070312 1.78125 -1.78125 C 1.9375 -1.5 2.144531 -1.28125 2.40625 -1.125 C 2.664062 -0.976562 2.941406 -0.90625 3.234375 -0.90625 C 3.523438 -0.90625 3.796875 -0.976562 4.046875 -1.125 C 4.304688 -1.269531 4.515625 -1.484375 4.671875 -1.765625 C 4.828125 -2.054688 4.90625 -2.394531 4.90625 -2.78125 Z M 4.90625 -2.78125 "/></g></g></g><g fill="#ffffff" fill-opacity="1"><g transform="translate(15.859104, 10.282199)"><g><path d="M 3.625 -5.640625 C 4.039062 -5.640625 4.414062 -5.546875 4.75 -5.359375 C 5.082031 -5.179688 5.34375 -4.914062 5.53125 -4.5625 C 5.726562 -4.207031 5.828125 -3.773438 5.828125 -3.265625 L 5.828125 0 L 4.6875 0 L 4.6875 -3.09375 C 4.6875 -3.59375 4.5625 -3.972656 4.3125 -4.234375 C 4.0625 -4.503906 3.722656 -4.640625 3.296875 -4.640625 C 2.867188 -4.640625 2.53125 -4.503906 2.28125 -4.234375 C 2.03125 -3.972656 1.90625 -3.59375 1.90625 -3.09375 L 1.90625 0 L 0.75 0 L 0.75 -7.453125 L 1.90625 -7.453125 L 1.90625 -4.90625 C 2.09375 -5.132812 2.335938 -5.3125 2.640625 -5.4375 C 2.941406 -5.570312 3.269531 -5.640625 3.625 -5.640625 Z M 3.625 -5.640625 "/></g></g></g><g fill="#ffffff" fill-opacity="1"><g transform="translate(22.845217, 10.282199)"><g><path d="M 2.09375 -4.609375 L 2.09375 -1.546875 C 2.09375 -1.335938 2.140625 -1.1875 2.234375 -1.09375 C 2.335938 -1 2.503906 -0.953125 2.734375 -0.953125 L 3.4375 -0.953125 L 3.4375 0 L 2.53125 0 C 2.019531 0 1.625 -0.117188 1.34375 -0.359375 C 1.070312 -0.597656 0.9375 -0.992188 0.9375 -1.546875 L 0.9375 -4.609375 L 0.28125 -4.609375 L 0.28125 -5.546875 L 0.9375 -5.546875 L 0.9375 -6.921875 L 2.09375 -6.921875 L 2.09375 -5.546875 L 3.4375 -5.546875 L 3.4375 -4.609375 Z M 2.09375 -4.609375 "/></g></g></g><g fill="#ffffff" fill-opacity="1"><g transform="translate(27.042924, 10.282199)"><g><path d="M 1.34375 -6.28125 C 1.132812 -6.28125 0.957031 -6.347656 0.8125 -6.484375 C 0.675781 -6.628906 0.609375 -6.804688 0.609375 -7.015625 C 0.609375 -7.222656 0.675781 -7.394531 0.8125 -7.53125 C 0.957031 -7.675781 1.132812 -7.75 1.34375 -7.75 C 1.539062 -7.75 1.707031 -7.675781 1.84375 -7.53125 C 1.988281 -7.394531 2.0625 -7.222656 2.0625 -7.015625 C 2.0625 -6.804688 1.988281 -6.628906 1.84375 -6.484375 C 1.707031 -6.347656 1.539062 -6.28125 1.34375 -6.28125 Z M 1.90625 -5.546875 L 1.90625 0 L 0.75 0 L 0.75 -5.546875 Z M 1.90625 -5.546875 "/></g></g></g><g fill="#ffffff" fill-opacity="1"><g transform="translate(30.153457, 10.282199)"><g><path d="M 3.546875 -5.640625 C 3.984375 -5.640625 4.375 -5.546875 4.71875 -5.359375 C 5.070312 -5.179688 5.34375 -4.914062 5.53125 -4.5625 C 5.726562 -4.207031 5.828125 -3.773438 5.828125 -3.265625 L 5.828125 0 L 4.6875 0 L 4.6875 -3.09375 C 4.6875 -3.59375 4.5625 -3.972656 4.3125 -4.234375 C 4.0625 -4.503906 3.722656 -4.640625 3.296875 -4.640625 C 2.867188 -4.640625 2.53125 -4.503906 2.28125 -4.234375 C 2.03125 -3.972656 1.90625 -3.59375 1.90625 -3.09375 L 1.90625 0 L 0.75 0 L 0.75 -5.546875 L 1.90625 -5.546875 L 1.90625 -4.90625 C 2.09375 -5.132812 2.332031 -5.3125 2.625 -5.4375 C 2.914062 -5.570312 3.222656 -5.640625 3.546875 -5.640625 Z M 3.546875 -5.640625 "/></g></g></g><g fill="#ffffff" fill-opacity="1"><g transform="translate(37.13957, 10.282199)"><g><path d="M 2.984375 -5.640625 C 3.410156 -5.640625 3.789062 -5.550781 4.125 -5.375 C 4.457031 -5.207031 4.71875 -4.992188 4.90625 -4.734375 L 4.90625 -5.546875 L 6.0625 -5.546875 L 6.0625 0.09375 C 6.0625 0.601562 5.953125 1.054688 5.734375 1.453125 C 5.523438 1.847656 5.21875 2.160156 4.8125 2.390625 C 4.40625 2.617188 3.921875 2.734375 3.359375 2.734375 C 2.609375 2.734375 1.984375 2.554688 1.484375 2.203125 C 0.992188 1.859375 0.710938 1.382812 0.640625 0.78125 L 1.78125 0.78125 C 1.863281 1.0625 2.046875 1.289062 2.328125 1.46875 C 2.617188 1.644531 2.960938 1.734375 3.359375 1.734375 C 3.828125 1.734375 4.203125 1.59375 4.484375 1.3125 C 4.765625 1.03125 4.90625 0.625 4.90625 0.09375 L 4.90625 -0.828125 C 4.71875 -0.566406 4.457031 -0.347656 4.125 -0.171875 C 3.789062 0.00390625 3.410156 0.09375 2.984375 0.09375 C 2.503906 0.09375 2.0625 -0.0234375 1.65625 -0.265625 C 1.257812 -0.515625 0.945312 -0.859375 0.71875 -1.296875 C 0.488281 -1.742188 0.375 -2.242188 0.375 -2.796875 C 0.375 -3.347656 0.488281 -3.835938 0.71875 -4.265625 C 0.945312 -4.703125 1.257812 -5.039062 1.65625 -5.28125 C 2.0625 -5.519531 2.503906 -5.640625 2.984375 -5.640625 Z M 4.90625 -2.78125 C 4.90625 -3.15625 4.828125 -3.484375 4.671875 -3.765625 C 4.515625 -4.054688 4.304688 -4.273438 4.046875 -4.421875 C 3.796875 -4.566406 3.523438 -4.640625 3.234375 -4.640625 C 2.929688 -4.640625 2.648438 -4.566406 2.390625 -4.421875 C 2.140625 -4.273438 1.9375 -4.0625 1.78125 -3.78125 C 1.625 -3.507812 1.546875 -3.179688 1.546875 -2.796875 C 1.546875 -2.410156 1.625 -2.070312 1.78125 -1.78125 C 1.9375 -1.5 2.144531 -1.28125 2.40625 -1.125 C 2.664062 -0.976562 2.941406 -0.90625 3.234375 -0.90625 C 3.523438 -0.90625 3.796875 -0.976562 4.046875 -1.125 C 4.304688 -1.269531 4.515625 -1.484375 4.671875 -1.765625 C 4.828125 -2.054688 4.90625 -2.394531 4.90625 -2.78125 Z M 4.90625 -2.78125 "/></g></g></g><g fill="#ffffff" fill-opacity="1"><g transform="translate(44.417614, 10.282199)"><g/></g></g><g fill="#ffffff" fill-opacity="1"><g transform="translate(47.487878, 10.282199)"><g><path d="M 5.78125 -5.546875 L 5.78125 0 L 4.625 0 L 4.625 -0.65625 C 4.445312 -0.425781 4.210938 -0.242188 3.921875 -0.109375 C 3.628906 0.015625 3.316406 0.078125 2.984375 0.078125 C 2.546875 0.078125 2.15625 -0.0078125 1.8125 -0.1875 C 1.46875 -0.375 1.195312 -0.644531 1 -1 C 0.800781 -1.351562 0.703125 -1.78125 0.703125 -2.28125 L 0.703125 -5.546875 L 1.84375 -5.546875 L 1.84375 -2.453125 C 1.84375 -1.953125 1.96875 -1.570312 2.21875 -1.3125 C 2.46875 -1.050781 2.804688 -0.921875 3.234375 -0.921875 C 3.660156 -0.921875 4 -1.050781 4.25 -1.3125 C 4.5 -1.570312 4.625 -1.953125 4.625 -2.453125 L 4.625 -5.546875 Z M 5.78125 -5.546875 "/></g></g></g><g fill="#ffffff" fill-opacity="1"><g transform="translate(54.473991, 10.282199)"><g><path d="M 1.90625 -4.734375 C 2.09375 -4.984375 2.351562 -5.195312 2.6875 -5.375 C 3.03125 -5.550781 3.410156 -5.640625 3.828125 -5.640625 C 4.316406 -5.640625 4.757812 -5.519531 5.15625 -5.28125 C 5.550781 -5.039062 5.863281 -4.703125 6.09375 -4.265625 C 6.320312 -3.835938 6.4375 -3.347656 6.4375 -2.796875 C 6.4375 -2.242188 6.320312 -1.742188 6.09375 -1.296875 C 5.863281 -0.859375 5.550781 -0.515625 5.15625 -0.265625 C 4.757812 -0.0234375 4.316406 0.09375 3.828125 0.09375 C 3.410156 0.09375 3.035156 0.0078125 2.703125 -0.15625 C 2.378906 -0.332031 2.113281 -0.550781 1.90625 -0.8125 L 1.90625 2.640625 L 0.75 2.640625 L 0.75 -5.546875 L 1.90625 -5.546875 Z M 5.265625 -2.796875 C 5.265625 -3.179688 5.1875 -3.507812 5.03125 -3.78125 C 4.875 -4.0625 4.664062 -4.273438 4.40625 -4.421875 C 4.15625 -4.566406 3.878906 -4.640625 3.578125 -4.640625 C 3.296875 -4.640625 3.023438 -4.566406 2.765625 -4.421875 C 2.503906 -4.273438 2.296875 -4.054688 2.140625 -3.765625 C 1.984375 -3.484375 1.90625 -3.15625 1.90625 -2.78125 C 1.90625 -2.394531 1.984375 -2.054688 2.140625 -1.765625 C 2.296875 -1.484375 2.503906 -1.269531 2.765625 -1.125 C 3.023438 -0.976562 3.296875 -0.90625 3.578125 -0.90625 C 3.878906 -0.90625 4.15625 -0.976562 4.40625 -1.125 C 4.664062 -1.28125 4.875 -1.5 5.03125 -1.78125 C 5.1875 -2.070312 5.265625 -2.410156 5.265625 -2.796875 Z M 5.265625 -2.796875 "/></g></g></g><g fill="#ffffff" fill-opacity="1"><g transform="translate(61.752035, 10.282199)"><g/></g></g><g fill="#ffffff" fill-opacity="1"><g transform="translate(64.822299, 10.282199)"><g><path d="M 2.09375 -4.609375 L 2.09375 -1.546875 C 2.09375 -1.335938 2.140625 -1.1875 2.234375 -1.09375 C 2.335938 -1 2.503906 -0.953125 2.734375 -0.953125 L 3.4375 -0.953125 L 3.4375 0 L 2.53125 0 C 2.019531 0 1.625 -0.117188 1.34375 -0.359375 C 1.070312 -0.597656 0.9375 -0.992188 0.9375 -1.546875 L 0.9375 -4.609375 L 0.28125 -4.609375 L 0.28125 -5.546875 L 0.9375 -5.546875 L 0.9375 -6.921875 L 2.09375 -6.921875 L 2.09375 -5.546875 L 3.4375 -5.546875 L 3.4375 -4.609375 Z M 2.09375 -4.609375 "/></g></g></g><g fill="#ffffff" fill-opacity="1"><g transform="translate(69.020006, 10.282199)"><g><path d="M 3.625 -5.640625 C 4.039062 -5.640625 4.414062 -5.546875 4.75 -5.359375 C 5.082031 -5.179688 5.34375 -4.914062 5.53125 -4.5625 C 5.726562 -4.207031 5.828125 -3.773438 5.828125 -3.265625 L 5.828125 0 L 4.6875 0 L 4.6875 -3.09375 C 4.6875 -3.59375 4.5625 -3.972656 4.3125 -4.234375 C 4.0625 -4.503906 3.722656 -4.640625 3.296875 -4.640625 C 2.867188 -4.640625 2.53125 -4.503906 2.28125 -4.234375 C 2.03125 -3.972656 1.90625 -3.59375 1.90625 -3.09375 L 1.90625 0 L 0.75 0 L 0.75 -7.453125 L 1.90625 -7.453125 L 1.90625 -4.90625 C 2.09375 -5.132812 2.335938 -5.3125 2.640625 -5.4375 C 2.941406 -5.570312 3.269531 -5.640625 3.625 -5.640625 Z M 3.625 -5.640625 "/></g></g></g><g fill="#ffffff" fill-opacity="1"><g transform="translate(76.006119, 10.282199)"><g><path d="M 5.84375 -2.90625 C 5.84375 -2.695312 5.828125 -2.507812 5.796875 -2.34375 L 1.5625 -2.34375 C 1.59375 -1.90625 1.753906 -1.550781 2.046875 -1.28125 C 2.347656 -1.007812 2.710938 -0.875 3.140625 -0.875 C 3.753906 -0.875 4.191406 -1.132812 4.453125 -1.65625 L 5.6875 -1.65625 C 5.519531 -1.144531 5.210938 -0.722656 4.765625 -0.390625 C 4.328125 -0.0664062 3.785156 0.09375 3.140625 0.09375 C 2.609375 0.09375 2.132812 -0.0234375 1.71875 -0.265625 C 1.300781 -0.503906 0.972656 -0.835938 0.734375 -1.265625 C 0.492188 -1.703125 0.375 -2.207031 0.375 -2.78125 C 0.375 -3.34375 0.488281 -3.84375 0.71875 -4.28125 C 0.945312 -4.71875 1.269531 -5.050781 1.6875 -5.28125 C 2.113281 -5.519531 2.597656 -5.640625 3.140625 -5.640625 C 3.660156 -5.640625 4.125 -5.523438 4.53125 -5.296875 C 4.945312 -5.066406 5.269531 -4.742188 5.5 -4.328125 C 5.726562 -3.921875 5.84375 -3.445312 5.84375 -2.90625 Z M 4.640625 -3.265625 C 4.628906 -3.691406 4.476562 -4.03125 4.1875 -4.28125 C 3.894531 -4.539062 3.53125 -4.671875 3.09375 -4.671875 C 2.695312 -4.671875 2.359375 -4.546875 2.078125 -4.296875 C 1.796875 -4.046875 1.625 -3.703125 1.5625 -3.265625 Z M 4.640625 -3.265625 "/></g></g></g><g fill="#ffffff" fill-opacity="1"><g transform="translate(82.670106, 10.282199)"><g/></g></g><g fill="#ffffff" fill-opacity="1"><g transform="translate(85.740369, 10.282199)"><g><path d="M 8.203125 -5.546875 L 6.484375 0 L 5.265625 0 L 4.15625 -4.09375 L 3.03125 0 L 1.828125 0 L 0.09375 -5.546875 L 1.265625 -5.546875 L 2.421875 -1.09375 L 3.609375 -5.546875 L 4.796875 -5.546875 L 5.921875 -1.109375 L 7.078125 -5.546875 Z M 8.203125 -5.546875 "/></g></g></g><g fill="#ffffff" fill-opacity="1"><g transform="translate(94.498179, 10.282199)"><g><path d="M 0.375 -2.796875 C 0.375 -3.347656 0.488281 -3.835938 0.71875 -4.265625 C 0.945312 -4.703125 1.257812 -5.039062 1.65625 -5.28125 C 2.0625 -5.519531 2.503906 -5.640625 2.984375 -5.640625 C 3.421875 -5.640625 3.800781 -5.550781 4.125 -5.375 C 4.457031 -5.207031 4.71875 -4.992188 4.90625 -4.734375 L 4.90625 -5.546875 L 6.0625 -5.546875 L 6.0625 0 L 4.90625 0 L 4.90625 -0.828125 C 4.71875 -0.566406 4.453125 -0.347656 4.109375 -0.171875 C 3.773438 0.00390625 3.394531 0.09375 2.96875 0.09375 C 2.488281 0.09375 2.050781 -0.0234375 1.65625 -0.265625 C 1.257812 -0.515625 0.945312 -0.859375 0.71875 -1.296875 C 0.488281 -1.742188 0.375 -2.242188 0.375 -2.796875 Z M 4.90625 -2.78125 C 4.90625 -3.15625 4.828125 -3.484375 4.671875 -3.765625 C 4.515625 -4.054688 4.304688 -4.273438 4.046875 -4.421875 C 3.796875 -4.566406 3.523438 -4.640625 3.234375 -4.640625 C 2.929688 -4.640625 2.648438 -4.566406 2.390625 -4.421875 C 2.140625 -4.273438 1.9375 -4.0625 1.78125 -3.78125 C 1.625 -3.507812 1.546875 -3.179688 1.546875 -2.796875 C 1.546875 -2.410156 1.625 -2.070312 1.78125 -1.78125 C 1.9375 -1.5 2.144531 -1.28125 2.40625 -1.125 C 2.664062 -0.976562 2.941406 -0.90625 3.234375 -0.90625 C 3.523438 -0.90625 3.796875 -0.976562 4.046875 -1.125 C 4.304688 -1.269531 4.515625 -1.484375 4.671875 -1.765625 C 4.828125 -2.054688 4.90625 -2.394531 4.90625 -2.78125 Z M 4.90625 -2.78125 "/></g></g></g><g fill="#ffffff" fill-opacity="1"><g transform="translate(101.776223, 10.282199)"><g><path d="M 5.75 -5.546875 L 2.34375 2.609375 L 1.15625 2.609375 L 2.28125 -0.09375 L 0.09375 -5.546875 L 1.375 -5.546875 L 2.9375 -1.3125 L 4.5625 -5.546875 Z M 5.75 -5.546875 "/></g></g></g><g fill="#ffffff" fill-opacity="1"><g transform="translate(108.087888, 10.282199)"><g/></g></g><g fill="#ffffff" fill-opacity="1"><g transform="translate(111.158152, 10.282199)"><g><path d="M 2.09375 -4.609375 L 2.09375 -1.546875 C 2.09375 -1.335938 2.140625 -1.1875 2.234375 -1.09375 C 2.335938 -1 2.503906 -0.953125 2.734375 -0.953125 L 3.4375 -0.953125 L 3.4375 0 L 2.53125 0 C 2.019531 0 1.625 -0.117188 1.34375 -0.359375 C 1.070312 -0.597656 0.9375 -0.992188 0.9375 -1.546875 L 0.9375 -4.609375 L 0.28125 -4.609375 L 0.28125 -5.546875 L 0.9375 -5.546875 L 0.9375 -6.921875 L 2.09375 -6.921875 L 2.09375 -5.546875 L 3.4375 -5.546875 L 3.4375 -4.609375 Z M 2.09375 -4.609375 "/></g></g></g><g fill="#ffffff" fill-opacity="1"><g transform="translate(115.355859, 10.282199)"><g><path d="M 3.15625 0.09375 C 2.632812 0.09375 2.160156 -0.0234375 1.734375 -0.265625 C 1.316406 -0.503906 0.984375 -0.835938 0.734375 -1.265625 C 0.492188 -1.703125 0.375 -2.207031 0.375 -2.78125 C 0.375 -3.34375 0.5 -3.84375 0.75 -4.28125 C 1 -4.71875 1.335938 -5.050781 1.765625 -5.28125 C 2.203125 -5.519531 2.679688 -5.640625 3.203125 -5.640625 C 3.734375 -5.640625 4.210938 -5.519531 4.640625 -5.28125 C 5.078125 -5.050781 5.414062 -4.71875 5.65625 -4.28125 C 5.90625 -3.84375 6.03125 -3.34375 6.03125 -2.78125 C 6.03125 -2.21875 5.898438 -1.71875 5.640625 -1.28125 C 5.390625 -0.84375 5.046875 -0.503906 4.609375 -0.265625 C 4.171875 -0.0234375 3.6875 0.09375 3.15625 0.09375 Z M 3.15625 -0.90625 C 3.457031 -0.90625 3.734375 -0.972656 3.984375 -1.109375 C 4.242188 -1.253906 4.453125 -1.46875 4.609375 -1.75 C 4.773438 -2.03125 4.859375 -2.375 4.859375 -2.78125 C 4.859375 -3.175781 4.78125 -3.515625 4.625 -3.796875 C 4.46875 -4.078125 4.257812 -4.285156 4 -4.421875 C 3.75 -4.566406 3.476562 -4.640625 3.1875 -4.640625 C 2.894531 -4.640625 2.625 -4.566406 2.375 -4.421875 C 2.125 -4.285156 1.921875 -4.078125 1.765625 -3.796875 C 1.617188 -3.515625 1.546875 -3.175781 1.546875 -2.78125 C 1.546875 -2.175781 1.695312 -1.710938 2 -1.390625 C 2.3125 -1.066406 2.695312 -0.90625 3.15625 -0.90625 Z M 3.15625 -0.90625 "/></g></g></g><g fill="#ffffff" fill-opacity="1"><g transform="translate(122.231238, 10.282199)"><g/></g></g><g fill="#ffffff" fill-opacity="1"><g transform="translate(125.301502, 10.282199)"><g><path d="M 5.84375 -2.90625 C 5.84375 -2.695312 5.828125 -2.507812 5.796875 -2.34375 L 1.5625 -2.34375 C 1.59375 -1.90625 1.753906 -1.550781 2.046875 -1.28125 C 2.347656 -1.007812 2.710938 -0.875 3.140625 -0.875 C 3.753906 -0.875 4.191406 -1.132812 4.453125 -1.65625 L 5.6875 -1.65625 C 5.519531 -1.144531 5.210938 -0.722656 4.765625 -0.390625 C 4.328125 -0.0664062 3.785156 0.09375 3.140625 0.09375 C 2.609375 0.09375 2.132812 -0.0234375 1.71875 -0.265625 C 1.300781 -0.503906 0.972656 -0.835938 0.734375 -1.265625 C 0.492188 -1.703125 0.375 -2.207031 0.375 -2.78125 C 0.375 -3.34375 0.488281 -3.84375 0.71875 -4.28125 C 0.945312 -4.71875 1.269531 -5.050781 1.6875 -5.28125 C 2.113281 -5.519531 2.597656 -5.640625 3.140625 -5.640625 C 3.660156 -5.640625 4.125 -5.523438 4.53125 -5.296875 C 4.945312 -5.066406 5.269531 -4.742188 5.5 -4.328125 C 5.726562 -3.921875 5.84375 -3.445312 5.84375 -2.90625 Z M 4.640625 -3.265625 C 4.628906 -3.691406 4.476562 -4.03125 4.1875 -4.28125 C 3.894531 -4.539062 3.53125 -4.671875 3.09375 -4.671875 C 2.695312 -4.671875 2.359375 -4.546875 2.078125 -4.296875 C 1.796875 -4.046875 1.625 -3.703125 1.5625 -3.265625 Z M 4.640625 -3.265625 "/></g></g></g><g fill="#ffffff" fill-opacity="1"><g transform="translate(131.965489, 10.282199)"><g><path d="M 0.375 -2.796875 C 0.375 -3.347656 0.488281 -3.835938 0.71875 -4.265625 C 0.945312 -4.703125 1.257812 -5.039062 1.65625 -5.28125 C 2.0625 -5.519531 2.507812 -5.640625 3 -5.640625 C 3.363281 -5.640625 3.71875 -5.554688 4.0625 -5.390625 C 4.414062 -5.234375 4.695312 -5.023438 4.90625 -4.765625 L 4.90625 -7.453125 L 6.0625 -7.453125 L 6.0625 0 L 4.90625 0 L 4.90625 -0.828125 C 4.71875 -0.566406 4.457031 -0.347656 4.125 -0.171875 C 3.789062 0.00390625 3.410156 0.09375 2.984375 0.09375 C 2.503906 0.09375 2.0625 -0.0234375 1.65625 -0.265625 C 1.257812 -0.515625 0.945312 -0.859375 0.71875 -1.296875 C 0.488281 -1.742188 0.375 -2.242188 0.375 -2.796875 Z M 4.90625 -2.78125 C 4.90625 -3.15625 4.828125 -3.484375 4.671875 -3.765625 C 4.515625 -4.054688 4.304688 -4.273438 4.046875 -4.421875 C 3.796875 -4.566406 3.523438 -4.640625 3.234375 -4.640625 C 2.929688 -4.640625 2.648438 -4.566406 2.390625 -4.421875 C 2.140625 -4.273438 1.9375 -4.0625 1.78125 -3.78125 C 1.625 -3.507812 1.546875 -3.179688 1.546875 -2.796875 C 1.546875 -2.410156 1.625 -2.070312 1.78125 -1.78125 C 1.9375 -1.5 2.144531 -1.28125 2.40625 -1.125 C 2.664062 -0.976562 2.941406 -0.90625 3.234375 -0.90625 C 3.523438 -0.90625 3.796875 -0.976562 4.046875 -1.125 C 4.304688 -1.269531 4.515625 -1.484375 4.671875 -1.765625 C 4.828125 -2.054688 4.90625 -2.394531 4.90625 -2.78125 Z M 4.90625 -2.78125 "/></g></g></g><g fill="#ffffff" fill-opacity="1"><g transform="translate(139.243533, 10.282199)"><g><path d="M 5.78125 -5.546875 L 5.78125 0 L 4.625 0 L 4.625 -0.65625 C 4.445312 -0.425781 4.210938 -0.242188 3.921875 -0.109375 C 3.628906 0.015625 3.316406 0.078125 2.984375 0.078125 C 2.546875 0.078125 2.15625 -0.0078125 1.8125 -0.1875 C 1.46875 -0.375 1.195312 -0.644531 1 -1 C 0.800781 -1.351562 0.703125 -1.78125 0.703125 -2.28125 L 0.703125 -5.546875 L 1.84375 -5.546875 L 1.84375 -2.453125 C 1.84375 -1.953125 1.96875 -1.570312 2.21875 -1.3125 C 2.46875 -1.050781 2.804688 -0.921875 3.234375 -0.921875 C 3.660156 -0.921875 4 -1.050781 4.25 -1.3125 C 4.5 -1.570312 4.625 -1.953125 4.625 -2.453125 L 4.625 -5.546875 Z M 5.78125 -5.546875 "/></g></g></g><g fill="#ffffff" fill-opacity="1"><g transform="translate(146.229646, 10.282199)"><g><path d="M 0.375 -2.78125 C 0.375 -3.34375 0.488281 -3.84375 0.71875 -4.28125 C 0.945312 -4.71875 1.265625 -5.050781 1.671875 -5.28125 C 2.085938 -5.519531 2.5625 -5.640625 3.09375 -5.640625 C 3.757812 -5.640625 4.3125 -5.476562 4.75 -5.15625 C 5.1875 -4.832031 5.484375 -4.378906 5.640625 -3.796875 L 4.40625 -3.796875 C 4.300781 -4.066406 4.140625 -4.28125 3.921875 -4.4375 C 3.703125 -4.59375 3.425781 -4.671875 3.09375 -4.671875 C 2.625 -4.671875 2.25 -4.503906 1.96875 -4.171875 C 1.6875 -3.835938 1.546875 -3.375 1.546875 -2.78125 C 1.546875 -2.175781 1.6875 -1.707031 1.96875 -1.375 C 2.25 -1.039062 2.625 -0.875 3.09375 -0.875 C 3.75 -0.875 4.1875 -1.164062 4.40625 -1.75 L 5.640625 -1.75 C 5.484375 -1.1875 5.179688 -0.738281 4.734375 -0.40625 C 4.296875 -0.0703125 3.75 0.09375 3.09375 0.09375 C 2.5625 0.09375 2.085938 -0.0234375 1.671875 -0.265625 C 1.265625 -0.503906 0.945312 -0.835938 0.71875 -1.265625 C 0.488281 -1.703125 0.375 -2.207031 0.375 -2.78125 Z M 0.375 -2.78125 "/></g></g></g><g fill="#ffffff" fill-opacity="1"><g transform="translate(152.722509, 10.282199)"><g><path d="M 0.375 -2.796875 C 0.375 -3.347656 0.488281 -3.835938 0.71875 -4.265625 C 0.945312 -4.703125 1.257812 -5.039062 1.65625 -5.28125 C 2.0625 -5.519531 2.503906 -5.640625 2.984375 -5.640625 C 3.421875 -5.640625 3.800781 -5.550781 4.125 -5.375 C 4.457031 -5.207031 4.71875 -4.992188 4.90625 -4.734375 L 4.90625 -5.546875 L 6.0625 -5.546875 L 6.0625 0 L 4.90625 0 L 4.90625 -0.828125 C 4.71875 -0.566406 4.453125 -0.347656 4.109375 -0.171875 C 3.773438 0.00390625 3.394531 0.09375 2.96875 0.09375 C 2.488281 0.09375 2.050781 -0.0234375 1.65625 -0.265625 C 1.257812 -0.515625 0.945312 -0.859375 0.71875 -1.296875 C 0.488281 -1.742188 0.375 -2.242188 0.375 -2.796875 Z M 4.90625 -2.78125 C 4.90625 -3.15625 4.828125 -3.484375 4.671875 -3.765625 C 4.515625 -4.054688 4.304688 -4.273438 4.046875 -4.421875 C 3.796875 -4.566406 3.523438 -4.640625 3.234375 -4.640625 C 2.929688 -4.640625 2.648438 -4.566406 2.390625 -4.421875 C 2.140625 -4.273438 1.9375 -4.0625 1.78125 -3.78125 C 1.625 -3.507812 1.546875 -3.179688 1.546875 -2.796875 C 1.546875 -2.410156 1.625 -2.070312 1.78125 -1.78125 C 1.9375 -1.5 2.144531 -1.28125 2.40625 -1.125 C 2.664062 -0.976562 2.941406 -0.90625 3.234375 -0.90625 C 3.523438 -0.90625 3.796875 -0.976562 4.046875 -1.125 C 4.304688 -1.269531 4.515625 -1.484375 4.671875 -1.765625 C 4.828125 -2.054688 4.90625 -2.394531 4.90625 -2.78125 Z M 4.90625 -2.78125 "/></g></g></g><g fill="#ffffff" fill-opacity="1"><g transform="translate(160.000553, 10.282199)"><g><path d="M 2.09375 -4.609375 L 2.09375 -1.546875 C 2.09375 -1.335938 2.140625 -1.1875 2.234375 -1.09375 C 2.335938 -1 2.503906 -0.953125 2.734375 -0.953125 L 3.4375 -0.953125 L 3.4375 0 L 2.53125 0 C 2.019531 0 1.625 -0.117188 1.34375 -0.359375 C 1.070312 -0.597656 0.9375 -0.992188 0.9375 -1.546875 L 0.9375 -4.609375 L 0.28125 -4.609375 L 0.28125 -5.546875 L 0.9375 -5.546875 L 0.9375 -6.921875 L 2.09375 -6.921875 L 2.09375 -5.546875 L 3.4375 -5.546875 L 3.4375 -4.609375 Z M 2.09375 -4.609375 "/></g></g></g><g fill="#ffffff" fill-opacity="1"><g transform="translate(164.19826, 10.282199)"><g><path d="M 1.34375 -6.28125 C 1.132812 -6.28125 0.957031 -6.347656 0.8125 -6.484375 C 0.675781 -6.628906 0.609375 -6.804688 0.609375 -7.015625 C 0.609375 -7.222656 0.675781 -7.394531 0.8125 -7.53125 C 0.957031 -7.675781 1.132812 -7.75 1.34375 -7.75 C 1.539062 -7.75 1.707031 -7.675781 1.84375 -7.53125 C 1.988281 -7.394531 2.0625 -7.222656 2.0625 -7.015625 C 2.0625 -6.804688 1.988281 -6.628906 1.84375 -6.484375 C 1.707031 -6.347656 1.539062 -6.28125 1.34375 -6.28125 Z M 1.90625 -5.546875 L 1.90625 0 L 0.75 0 L 0.75 -5.546875 Z M 1.90625 -5.546875 "/></g></g></g><g fill="#ffffff" fill-opacity="1"><g transform="translate(167.308793, 10.282199)"><g><path d="M 3.15625 0.09375 C 2.632812 0.09375 2.160156 -0.0234375 1.734375 -0.265625 C 1.316406 -0.503906 0.984375 -0.835938 0.734375 -1.265625 C 0.492188 -1.703125 0.375 -2.207031 0.375 -2.78125 C 0.375 -3.34375 0.5 -3.84375 0.75 -4.28125 C 1 -4.71875 1.335938 -5.050781 1.765625 -5.28125 C 2.203125 -5.519531 2.679688 -5.640625 3.203125 -5.640625 C 3.734375 -5.640625 4.210938 -5.519531 4.640625 -5.28125 C 5.078125 -5.050781 5.414062 -4.71875 5.65625 -4.28125 C 5.90625 -3.84375 6.03125 -3.34375 6.03125 -2.78125 C 6.03125 -2.21875 5.898438 -1.71875 5.640625 -1.28125 C 5.390625 -0.84375 5.046875 -0.503906 4.609375 -0.265625 C 4.171875 -0.0234375 3.6875 0.09375 3.15625 0.09375 Z M 3.15625 -0.90625 C 3.457031 -0.90625 3.734375 -0.972656 3.984375 -1.109375 C 4.242188 -1.253906 4.453125 -1.46875 4.609375 -1.75 C 4.773438 -2.03125 4.859375 -2.375 4.859375 -2.78125 C 4.859375 -3.175781 4.78125 -3.515625 4.625 -3.796875 C 4.46875 -4.078125 4.257812 -4.285156 4 -4.421875 C 3.75 -4.566406 3.476562 -4.640625 3.1875 -4.640625 C 2.894531 -4.640625 2.625 -4.566406 2.375 -4.421875 C 2.125 -4.285156 1.921875 -4.078125 1.765625 -3.796875 C 1.617188 -3.515625 1.546875 -3.175781 1.546875 -2.78125 C 1.546875 -2.175781 1.695312 -1.710938 2 -1.390625 C 2.3125 -1.066406 2.695312 -0.90625 3.15625 -0.90625 Z M 3.15625 -0.90625 "/></g></g></g><g fill="#ffffff" fill-opacity="1"><g transform="translate(174.184172, 10.282199)"><g><path d="M 3.546875 -5.640625 C 3.984375 -5.640625 4.375 -5.546875 4.71875 -5.359375 C 5.070312 -5.179688 5.34375 -4.914062 5.53125 -4.5625 C 5.726562 -4.207031 5.828125 -3.773438 5.828125 -3.265625 L 5.828125 0 L 4.6875 0 L 4.6875 -3.09375 C 4.6875 -3.59375 4.5625 -3.972656 4.3125 -4.234375 C 4.0625 -4.503906 3.722656 -4.640625 3.296875 -4.640625 C 2.867188 -4.640625 2.53125 -4.503906 2.28125 -4.234375 C 2.03125 -3.972656 1.90625 -3.59375 1.90625 -3.09375 L 1.90625 0 L 0.75 0 L 0.75 -5.546875 L 1.90625 -5.546875 L 1.90625 -4.90625 C 2.09375 -5.132812 2.332031 -5.3125 2.625 -5.4375 C 2.914062 -5.570312 3.222656 -5.640625 3.546875 -5.640625 Z M 3.546875 -5.640625 "/></g></g></g></g></g></svg>