<svg xmlns="http://www.w3.org/2000/svg" xmlns:xlink="http://www.w3.org/1999/xlink" width="500" zoomAndPan="magnify" viewBox="0 0 375 374.999991" height="500" preserveAspectRatio="xMidYMid meet" version="1.2"><defs><clipPath id="375288236a"><path d="M 310.167969 167.28125 L 314.644531 167.28125 L 314.644531 168.222656 L 310.167969 168.222656 Z M 310.167969 167.28125 "/></clipPath><clipPath id="d996bdf33a"><path d="M 312 142.726562 L 313 142.726562 L 313 148 L 312 148 Z M 312 142.726562 "/></clipPath><clipPath id="891b30f87c"><path d="M 320.445312 154.917969 L 324.964844 154.917969 L 324.964844 155.652344 L 320.445312 155.652344 Z M 320.445312 154.917969 "/></clipPath><clipPath id="14a87e6f7e"><path d="M 299.847656 154 L 305 154 L 305 156 L 299.847656 156 Z M 299.847656 154 "/></clipPath></defs><g id="c5e644c86f"><g style="fill:#ffcc00;fill-opacity:1;"><g transform="translate(44.14237, 199.499987)"><path style="stroke:none" d="M 15.546875 -13.109375 C 16.472656 -12.960938 17.316406 -12.582031 18.078125 -11.96875 C 18.847656 -11.363281 19.457031 -10.609375 19.90625 -9.703125 C 20.363281 -8.804688 20.59375 -7.847656 20.59375 -6.828125 C 20.59375 -5.535156 20.257812 -4.367188 19.59375 -3.328125 C 18.9375 -2.296875 17.984375 -1.484375 16.734375 -0.890625 C 15.484375 -0.296875 14.003906 0 12.296875 0 L 2.8125 0 L 2.8125 -25.4375 L 11.9375 -25.4375 C 13.664062 -25.4375 15.132812 -25.148438 16.34375 -24.578125 C 17.5625 -24.003906 18.472656 -23.234375 19.078125 -22.265625 C 19.691406 -21.296875 20 -20.203125 20 -18.984375 C 20 -17.472656 19.59375 -16.222656 18.78125 -15.234375 C 17.96875 -14.253906 16.890625 -13.546875 15.546875 -13.109375 Z M 6.125 -14.453125 L 11.71875 -14.453125 C 13.269531 -14.453125 14.472656 -14.816406 15.328125 -15.546875 C 16.179688 -16.273438 16.609375 -17.285156 16.609375 -18.578125 C 16.609375 -19.867188 16.179688 -20.878906 15.328125 -21.609375 C 14.472656 -22.335938 13.242188 -22.703125 11.640625 -22.703125 L 6.125 -22.703125 Z M 12.015625 -2.734375 C 13.660156 -2.734375 14.945312 -3.125 15.875 -3.90625 C 16.800781 -4.6875 17.265625 -5.769531 17.265625 -7.15625 C 17.265625 -8.5625 16.773438 -9.671875 15.796875 -10.484375 C 14.828125 -11.304688 13.53125 -11.71875 11.90625 -11.71875 L 6.125 -11.71875 L 6.125 -2.734375 Z M 12.015625 -2.734375 "/></g></g><g style="fill:#ffcc00;fill-opacity:1;"><g transform="translate(68.73856, 199.499987)"><path style="stroke:none" d="M 16.203125 0 L 10.140625 -10.40625 L 6.125 -10.40625 L 6.125 0 L 2.8125 0 L 2.8125 -25.4375 L 11.015625 -25.4375 C 12.941406 -25.4375 14.566406 -25.109375 15.890625 -24.453125 C 17.222656 -23.796875 18.21875 -22.90625 18.875 -21.78125 C 19.53125 -20.664062 19.859375 -19.390625 19.859375 -17.953125 C 19.859375 -16.203125 19.351562 -14.65625 18.34375 -13.3125 C 17.332031 -11.976562 15.816406 -11.09375 13.796875 -10.65625 L 20.1875 0 Z M 6.125 -13.0625 L 11.015625 -13.0625 C 12.816406 -13.0625 14.164062 -13.503906 15.0625 -14.390625 C 15.96875 -15.285156 16.421875 -16.472656 16.421875 -17.953125 C 16.421875 -19.460938 15.976562 -20.628906 15.09375 -21.453125 C 14.207031 -22.285156 12.847656 -22.703125 11.015625 -22.703125 L 6.125 -22.703125 Z M 6.125 -13.0625 "/></g></g><g style="fill:#ffcc00;fill-opacity:1;"><g transform="translate(93.152297, 199.499987)"><path style="stroke:none" d="M 6.125 -25.4375 L 6.125 0 L 2.8125 0 L 2.8125 -25.4375 Z M 6.125 -25.4375 "/></g></g><g style="fill:#ffcc00;fill-opacity:1;"><g transform="translate(104.355868, 199.499987)"><path style="stroke:none" d="M 22.078125 -18.0625 C 21.378906 -19.550781 20.359375 -20.703125 19.015625 -21.515625 C 17.679688 -22.328125 16.125 -22.734375 14.34375 -22.734375 C 12.570312 -22.734375 10.972656 -22.328125 9.546875 -21.515625 C 8.117188 -20.703125 7 -19.535156 6.1875 -18.015625 C 5.375 -16.492188 4.96875 -14.734375 4.96875 -12.734375 C 4.96875 -10.742188 5.375 -8.992188 6.1875 -7.484375 C 7 -5.972656 8.117188 -4.8125 9.546875 -4 C 10.972656 -3.1875 12.570312 -2.78125 14.34375 -2.78125 C 16.820312 -2.78125 18.863281 -3.519531 20.46875 -5 C 22.082031 -6.488281 23.019531 -8.492188 23.28125 -11.015625 L 13.140625 -11.015625 L 13.140625 -13.71875 L 26.828125 -13.71875 L 26.828125 -11.171875 C 26.628906 -9.078125 25.96875 -7.160156 24.84375 -5.421875 C 23.726562 -3.679688 22.257812 -2.304688 20.4375 -1.296875 C 18.613281 -0.285156 16.582031 0.21875 14.34375 0.21875 C 11.976562 0.21875 9.820312 -0.332031 7.875 -1.4375 C 5.9375 -2.550781 4.398438 -4.09375 3.265625 -6.0625 C 2.128906 -8.03125 1.5625 -10.253906 1.5625 -12.734375 C 1.5625 -15.222656 2.128906 -17.457031 3.265625 -19.4375 C 4.398438 -21.414062 5.9375 -22.957031 7.875 -24.0625 C 9.820312 -25.175781 11.976562 -25.734375 14.34375 -25.734375 C 17.039062 -25.734375 19.429688 -25.0625 21.515625 -23.71875 C 23.597656 -22.382812 25.113281 -20.5 26.0625 -18.0625 Z M 22.078125 -18.0625 "/></g></g><g style="fill:#ffcc00;fill-opacity:1;"><g transform="translate(134.973263, 199.499987)"><path style="stroke:none" d="M 22.40625 -25.4375 L 22.40625 0 L 19.09375 0 L 19.09375 -11.53125 L 6.125 -11.53125 L 6.125 0 L 2.8125 0 L 2.8125 -25.4375 L 6.125 -25.4375 L 6.125 -14.265625 L 19.09375 -14.265625 L 19.09375 -25.4375 Z M 22.40625 -25.4375 "/></g></g><g style="fill:#ffcc00;fill-opacity:1;"><g transform="translate(162.452333, 199.499987)"><path style="stroke:none" d="M 18.46875 -25.4375 L 18.46875 -22.734375 L 11.53125 -22.734375 L 11.53125 0 L 8.21875 0 L 8.21875 -22.734375 L 1.234375 -22.734375 L 1.234375 -25.4375 Z M 18.46875 -25.4375 "/></g></g><path style="fill:none;stroke-width:5;stroke-linecap:butt;stroke-linejoin:miter;stroke:#ffcc00;stroke-opacity:1;stroke-miterlimit:4;" d="M -0.00141523 2.501363 L 17.884003 2.501363 " transform="matrix(0,-0.75,0.75,0,154.928666,167.873939)"/><path style="fill:none;stroke-width:5;stroke-linecap:butt;stroke-linejoin:miter;stroke:#ffcc00;stroke-opacity:1;stroke-miterlimit:4;" d="M -0.00232563 2.499556 L 189.810187 2.499556 " transform="matrix(-0.75,0,0,-0.75,297.279506,157.46451)"/><path style="fill:none;stroke-width:5;stroke-linecap:butt;stroke-linejoin:miter;stroke:#ffcc00;stroke-opacity:1;stroke-miterlimit:4;" d="M 0.00109488 2.501532 L 59.824015 2.498079 " transform="matrix(0.000173887,-0.75,0.75,0.000173887,310.63557,218.910542)"/><path style="fill:none;stroke-width:5;stroke-linecap:butt;stroke-linejoin:miter;stroke:#ffcc00;stroke-opacity:1;stroke-miterlimit:4;" d="M 0.00250998 2.50065 L 11.132778 2.50065 " transform="matrix(0.00000000129429,-0.741573,0.741573,0.00000000129429,209.657304,219.599518)"/><path style="fill:none;stroke-width:5;stroke-linecap:butt;stroke-linejoin:miter;stroke:#ffcc00;stroke-opacity:1;stroke-miterlimit:4;" d="M 0.00122928 2.499992 L 137.157491 2.499992 " transform="matrix(-0.749146,-0.00000000130751,0.00000000130751,-0.749146,314.403265,219.603326)"/><path style=" stroke:none;fill-rule:nonzero;fill:#ffcc00;fill-opacity:1;" d="M 312.402344 149.554688 C 311.078125 149.554688 309.828125 150.046875 308.855469 150.960938 C 307.800781 151.953125 307.222656 153.292969 307.222656 154.738281 C 307.222656 155.910156 307.601562 157.015625 308.324219 157.933594 C 309.3125 159.195312 309.835938 160.652344 309.835938 162.148438 L 309.835938 163.058594 C 309.835938 163.210938 309.960938 163.335938 310.113281 163.335938 L 314.707031 163.335938 C 314.84375 163.335938 314.957031 163.222656 314.957031 163.085938 L 314.957031 162.167969 C 314.957031 160.660156 315.484375 159.175781 316.441406 157.992188 C 317.253906 156.988281 317.65625 155.722656 317.582031 154.425781 C 317.429688 151.859375 315.300781 149.722656 312.734375 149.566406 C 312.625 149.558594 312.511719 149.554688 312.402344 149.554688 Z M 314.707031 164.066406 L 310.113281 164.066406 C 309.558594 164.066406 309.105469 163.617188 309.105469 163.058594 L 309.105469 162.148438 C 309.105469 160.816406 308.636719 159.515625 307.75 158.386719 C 306.925781 157.339844 306.492188 156.078125 306.492188 154.738281 C 306.492188 153.113281 307.167969 151.542969 308.355469 150.429688 C 309.554688 149.296875 311.128906 148.734375 312.78125 148.835938 C 315.757812 149.019531 318.136719 151.402344 318.3125 154.382812 C 318.398438 155.859375 317.9375 157.304688 317.011719 158.453125 C 316.15625 159.507812 315.6875 160.828125 315.6875 162.167969 L 315.6875 163.085938 C 315.6875 163.628906 315.246094 164.066406 314.707031 164.066406 "/><path style=" stroke:none;fill-rule:nonzero;fill:#ffcc00;fill-opacity:1;" d="M 314.953125 165.035156 L 309.859375 165.035156 C 309.660156 165.035156 309.496094 164.871094 309.496094 164.667969 C 309.496094 164.464844 309.660156 164.300781 309.859375 164.300781 L 314.953125 164.300781 C 315.152344 164.300781 315.316406 164.464844 315.316406 164.667969 C 315.316406 164.871094 315.152344 165.035156 314.953125 165.035156 "/><path style=" stroke:none;fill-rule:nonzero;fill:#ffcc00;fill-opacity:1;" d="M 314.953125 166.007812 L 309.859375 166.007812 C 309.660156 166.007812 309.496094 165.84375 309.496094 165.644531 C 309.496094 165.441406 309.660156 165.277344 309.859375 165.277344 L 314.953125 165.277344 C 315.152344 165.277344 315.316406 165.441406 315.316406 165.644531 C 315.316406 165.84375 315.152344 166.007812 314.953125 166.007812 "/><path style=" stroke:none;fill-rule:nonzero;fill:#ffcc00;fill-opacity:1;" d="M 314.953125 166.984375 L 309.859375 166.984375 C 309.660156 166.984375 309.496094 166.820312 309.496094 166.621094 C 309.496094 166.417969 309.660156 166.253906 309.859375 166.253906 L 314.953125 166.253906 C 315.152344 166.253906 315.316406 166.417969 315.316406 166.621094 C 315.316406 166.820312 315.152344 166.984375 314.953125 166.984375 "/><g clip-rule="nonzero" clip-path="url(#375288236a)"><path style=" stroke:none;fill-rule:nonzero;fill:#ffcc00;fill-opacity:1;" d="M 314.316406 168.222656 L 310.496094 168.222656 L 310.171875 167.28125 L 314.640625 167.28125 L 314.316406 168.222656 "/></g><g clip-rule="nonzero" clip-path="url(#d996bdf33a)"><path style=" stroke:none;fill-rule:nonzero;fill:#ffcc00;fill-opacity:1;" d="M 312.40625 147.242188 C 312.203125 147.242188 312.039062 147.078125 312.039062 146.875 L 312.039062 143.09375 C 312.039062 142.890625 312.203125 142.726562 312.40625 142.726562 C 312.609375 142.726562 312.773438 142.890625 312.773438 143.09375 L 312.773438 146.875 C 312.773438 147.078125 312.609375 147.242188 312.40625 147.242188 "/></g><path style=" stroke:none;fill-rule:nonzero;fill:#ffcc00;fill-opacity:1;" d="M 318.351562 149.707031 C 318.257812 149.707031 318.164062 149.667969 318.09375 149.597656 C 317.949219 149.457031 317.949219 149.222656 318.09375 149.082031 L 320.769531 146.40625 C 320.910156 146.261719 321.144531 146.261719 321.285156 146.40625 C 321.429688 146.546875 321.429688 146.777344 321.285156 146.921875 L 318.609375 149.597656 C 318.539062 149.667969 318.445312 149.707031 318.351562 149.707031 "/><g clip-rule="nonzero" clip-path="url(#891b30f87c)"><path style=" stroke:none;fill-rule:nonzero;fill:#ffcc00;fill-opacity:1;" d="M 324.597656 155.652344 L 320.8125 155.652344 C 320.613281 155.652344 320.449219 155.488281 320.449219 155.285156 C 320.449219 155.082031 320.613281 154.917969 320.8125 154.917969 L 324.597656 154.917969 C 324.800781 154.917969 324.964844 155.082031 324.964844 155.285156 C 324.964844 155.488281 324.800781 155.652344 324.597656 155.652344 "/></g><path style=" stroke:none;fill-rule:nonzero;fill:#ffcc00;fill-opacity:1;" d="M 321.027344 164.273438 C 320.933594 164.273438 320.839844 164.234375 320.769531 164.164062 L 318.09375 161.488281 C 317.949219 161.347656 317.949219 161.113281 318.09375 160.972656 C 318.234375 160.828125 318.46875 160.828125 318.609375 160.972656 L 321.285156 163.648438 C 321.429688 163.789062 321.429688 164.023438 321.285156 164.164062 C 321.214844 164.234375 321.121094 164.273438 321.027344 164.273438 "/><path style=" stroke:none;fill-rule:nonzero;fill:#ffcc00;fill-opacity:1;" d="M 303.785156 164.273438 C 303.691406 164.273438 303.597656 164.234375 303.527344 164.164062 C 303.382812 164.023438 303.382812 163.789062 303.527344 163.648438 L 306.203125 160.972656 C 306.34375 160.828125 306.578125 160.828125 306.71875 160.972656 C 306.863281 161.113281 306.863281 161.347656 306.71875 161.488281 L 304.042969 164.164062 C 303.972656 164.234375 303.878906 164.273438 303.785156 164.273438 "/><g clip-rule="nonzero" clip-path="url(#14a87e6f7e)"><path style=" stroke:none;fill-rule:nonzero;fill:#ffcc00;fill-opacity:1;" d="M 304 155.652344 L 300.214844 155.652344 C 300.011719 155.652344 299.847656 155.488281 299.847656 155.285156 C 299.847656 155.082031 300.011719 154.917969 300.214844 154.917969 L 304 154.917969 C 304.199219 154.917969 304.363281 155.082031 304.363281 155.285156 C 304.363281 155.488281 304.199219 155.652344 304 155.652344 "/></g><path style=" stroke:none;fill-rule:nonzero;fill:#ffcc00;fill-opacity:1;" d="M 306.460938 149.707031 C 306.367188 149.707031 306.273438 149.667969 306.203125 149.597656 L 303.527344 146.921875 C 303.382812 146.777344 303.382812 146.546875 303.527344 146.40625 C 303.667969 146.261719 303.898438 146.261719 304.042969 146.40625 L 306.71875 149.082031 C 306.863281 149.222656 306.863281 149.457031 306.71875 149.597656 C 306.648438 149.667969 306.554688 149.707031 306.460938 149.707031 "/><g style="fill:#ffffff;fill-opacity:1;"><g transform="translate(185.563864, 194.428874)"><path style="stroke:none" d="M 10.0625 0.328125 C 8.507812 0.328125 7.113281 0.0625 5.875 -0.46875 C 4.632812 -1 3.65625 -1.738281 2.9375 -2.6875 C 2.21875 -3.644531 1.820312 -4.742188 1.75 -5.984375 L 5.234375 -5.984375 C 5.335938 -4.960938 5.816406 -4.128906 6.671875 -3.484375 C 7.523438 -2.847656 8.644531 -2.53125 10.03125 -2.53125 C 11.320312 -2.53125 12.335938 -2.8125 13.078125 -3.375 C 13.816406 -3.945312 14.1875 -4.664062 14.1875 -5.53125 C 14.1875 -6.425781 13.789062 -7.085938 13 -7.515625 C 12.207031 -7.953125 10.984375 -8.382812 9.328125 -8.8125 C 7.816406 -9.207031 6.582031 -9.609375 5.625 -10.015625 C 4.675781 -10.421875 3.859375 -11.023438 3.171875 -11.828125 C 2.492188 -12.640625 2.15625 -13.703125 2.15625 -15.015625 C 2.15625 -16.054688 2.460938 -17.007812 3.078125 -17.875 C 3.703125 -18.738281 4.582031 -19.425781 5.71875 -19.9375 C 6.863281 -20.445312 8.164062 -20.703125 9.625 -20.703125 C 11.875 -20.703125 13.691406 -20.128906 15.078125 -18.984375 C 16.472656 -17.847656 17.21875 -16.289062 17.3125 -14.3125 L 13.9375 -14.3125 C 13.863281 -15.375 13.4375 -16.222656 12.65625 -16.859375 C 11.875 -17.503906 10.828125 -17.828125 9.515625 -17.828125 C 8.296875 -17.828125 7.328125 -17.566406 6.609375 -17.046875 C 5.890625 -16.535156 5.53125 -15.859375 5.53125 -15.015625 C 5.53125 -14.347656 5.75 -13.796875 6.1875 -13.359375 C 6.625 -12.921875 7.171875 -12.570312 7.828125 -12.3125 C 8.484375 -12.050781 9.390625 -11.757812 10.546875 -11.4375 C 12.015625 -11.039062 13.207031 -10.648438 14.125 -10.265625 C 15.039062 -9.890625 15.828125 -9.316406 16.484375 -8.546875 C 17.140625 -7.773438 17.476562 -6.769531 17.5 -5.53125 C 17.5 -4.414062 17.1875 -3.410156 16.5625 -2.515625 C 15.945312 -1.628906 15.078125 -0.929688 13.953125 -0.421875 C 12.828125 0.078125 11.53125 0.328125 10.0625 0.328125 Z M 10.0625 0.328125 "/></g></g><g style="fill:#ffffff;fill-opacity:1;"><g transform="translate(207.228798, 194.428874)"><path style="stroke:none" d="M 6.25 -16.609375 C 6.914062 -17.773438 7.910156 -18.75 9.234375 -19.53125 C 10.554688 -20.3125 12.097656 -20.703125 13.859375 -20.703125 C 15.671875 -20.703125 17.3125 -20.265625 18.78125 -19.390625 C 20.257812 -18.523438 21.414062 -17.304688 22.25 -15.734375 C 23.09375 -14.160156 23.515625 -12.332031 23.515625 -10.25 C 23.515625 -8.195312 23.09375 -6.363281 22.25 -4.75 C 21.414062 -3.144531 20.257812 -1.894531 18.78125 -1 C 17.3125 -0.113281 15.671875 0.328125 13.859375 0.328125 C 12.128906 0.328125 10.597656 -0.0546875 9.265625 -0.828125 C 7.941406 -1.609375 6.9375 -2.582031 6.25 -3.75 L 6.25 9.65625 L 2.859375 9.65625 L 2.859375 -20.359375 L 6.25 -20.359375 Z M 20.0625 -10.25 C 20.0625 -11.789062 19.75 -13.128906 19.125 -14.265625 C 18.507812 -15.410156 17.675781 -16.28125 16.625 -16.875 C 15.570312 -17.46875 14.414062 -17.765625 13.15625 -17.765625 C 11.914062 -17.765625 10.769531 -17.457031 9.71875 -16.84375 C 8.664062 -16.238281 7.820312 -15.359375 7.1875 -14.203125 C 6.5625 -13.054688 6.25 -11.726562 6.25 -10.21875 C 6.25 -8.6875 6.5625 -7.34375 7.1875 -6.1875 C 7.820312 -5.03125 8.664062 -4.148438 9.71875 -3.546875 C 10.769531 -2.941406 11.914062 -2.640625 13.15625 -2.640625 C 14.414062 -2.640625 15.570312 -2.941406 16.625 -3.546875 C 17.675781 -4.148438 18.507812 -5.03125 19.125 -6.1875 C 19.75 -7.34375 20.0625 -8.695312 20.0625 -10.25 Z M 20.0625 -10.25 "/></g></g><g style="fill:#ffffff;fill-opacity:1;"><g transform="translate(234.616408, 194.428874)"><path style="stroke:none" d="M 1.59375 -10.25 C 1.59375 -12.332031 2.015625 -14.160156 2.859375 -15.734375 C 3.703125 -17.304688 4.859375 -18.523438 6.328125 -19.390625 C 7.804688 -20.265625 9.453125 -20.703125 11.265625 -20.703125 C 13.046875 -20.703125 14.59375 -20.316406 15.90625 -19.546875 C 17.21875 -18.773438 18.195312 -17.804688 18.84375 -16.640625 L 18.84375 -20.359375 L 22.25 -20.359375 L 22.25 0 L 18.84375 0 L 18.84375 -3.796875 C 18.164062 -2.597656 17.164062 -1.609375 15.84375 -0.828125 C 14.519531 -0.0546875 12.976562 0.328125 11.21875 0.328125 C 9.414062 0.328125 7.78125 -0.113281 6.3125 -1 C 4.851562 -1.894531 3.703125 -3.144531 2.859375 -4.75 C 2.015625 -6.363281 1.59375 -8.195312 1.59375 -10.25 Z M 18.84375 -10.21875 C 18.84375 -11.75 18.53125 -13.082031 17.90625 -14.21875 C 17.289062 -15.363281 16.457031 -16.238281 15.40625 -16.84375 C 14.351562 -17.457031 13.191406 -17.765625 11.921875 -17.765625 C 10.660156 -17.765625 9.507812 -17.46875 8.46875 -16.875 C 7.425781 -16.28125 6.59375 -15.410156 5.96875 -14.265625 C 5.351562 -13.128906 5.046875 -11.789062 5.046875 -10.25 C 5.046875 -8.695312 5.351562 -7.34375 5.96875 -6.1875 C 6.59375 -5.03125 7.425781 -4.148438 8.46875 -3.546875 C 9.507812 -2.941406 10.660156 -2.640625 11.921875 -2.640625 C 13.191406 -2.640625 14.351562 -2.941406 15.40625 -3.546875 C 16.457031 -4.148438 17.289062 -5.03125 17.90625 -6.1875 C 18.53125 -7.34375 18.84375 -8.6875 18.84375 -10.21875 Z M 18.84375 -10.21875 "/></g></g><g style="fill:#ffffff;fill-opacity:1;"><g transform="translate(262.004017, 194.428874)"><path style="stroke:none" d="M 6.25 -17.0625 C 6.84375 -18.21875 7.6875 -19.117188 8.78125 -19.765625 C 9.882812 -20.410156 11.226562 -20.734375 12.8125 -20.734375 L 12.8125 -17.234375 L 11.921875 -17.234375 C 8.140625 -17.234375 6.25 -15.179688 6.25 -11.078125 L 6.25 0 L 2.859375 0 L 2.859375 -20.359375 L 6.25 -20.359375 Z M 6.25 -17.0625 "/></g></g><g style="fill:#ffffff;fill-opacity:1;"><g transform="translate(278.132083, 194.428874)"><path style="stroke:none" d="M 14.234375 0 L 6.25 -8.984375 L 6.25 0 L 2.859375 0 L 2.859375 -27.5 L 6.25 -27.5 L 6.25 -11.328125 L 14.078125 -20.359375 L 18.796875 -20.359375 L 9.21875 -10.21875 L 18.84375 0 Z M 14.234375 0 "/></g></g><g style="fill:#ffffff;fill-opacity:1;"><g transform="translate(47.531757, 215.88343)"><path style="stroke:none" d="M 1.515625 -0.734375 L 3.390625 -0.734375 L 3.390625 0 L 0.59375 0 L 0.59375 -5.5625 L 1.515625 -5.5625 Z M 1.515625 -0.734375 "/></g></g><g style="fill:#ffffff;fill-opacity:1;"><g transform="translate(51.443844, 215.88343)"><path style="stroke:none" d="M 1.0625 -4.984375 C 0.894531 -4.984375 0.753906 -5.039062 0.640625 -5.15625 C 0.535156 -5.269531 0.484375 -5.410156 0.484375 -5.578125 C 0.484375 -5.742188 0.535156 -5.878906 0.640625 -5.984375 C 0.753906 -6.097656 0.894531 -6.15625 1.0625 -6.15625 C 1.21875 -6.15625 1.351562 -6.097656 1.46875 -5.984375 C 1.582031 -5.878906 1.640625 -5.742188 1.640625 -5.578125 C 1.640625 -5.410156 1.582031 -5.269531 1.46875 -5.15625 C 1.351562 -5.039062 1.21875 -4.984375 1.0625 -4.984375 Z M 1.515625 -4.40625 L 1.515625 0 L 0.59375 0 L 0.59375 -4.40625 Z M 1.515625 -4.40625 "/></g></g><g style="fill:#ffffff;fill-opacity:1;"><g transform="translate(53.915903, 215.88343)"><path style="stroke:none" d="M 2.375 -4.484375 C 2.71875 -4.484375 3.019531 -4.414062 3.28125 -4.28125 C 3.550781 -4.144531 3.757812 -3.972656 3.90625 -3.765625 L 3.90625 -4.40625 L 4.828125 -4.40625 L 4.828125 0.078125 C 4.828125 0.484375 4.738281 0.84375 4.5625 1.15625 C 4.394531 1.46875 4.148438 1.710938 3.828125 1.890625 C 3.503906 2.078125 3.117188 2.171875 2.671875 2.171875 C 2.078125 2.171875 1.582031 2.03125 1.1875 1.75 C 0.789062 1.476562 0.566406 1.097656 0.515625 0.609375 L 1.421875 0.609375 C 1.484375 0.835938 1.628906 1.023438 1.859375 1.171875 C 2.085938 1.316406 2.359375 1.390625 2.671875 1.390625 C 3.035156 1.390625 3.332031 1.273438 3.5625 1.046875 C 3.789062 0.828125 3.90625 0.503906 3.90625 0.078125 L 3.90625 -0.65625 C 3.75 -0.457031 3.535156 -0.285156 3.265625 -0.140625 C 3.003906 0.00390625 2.707031 0.078125 2.375 0.078125 C 1.988281 0.078125 1.632812 -0.0195312 1.3125 -0.21875 C 1 -0.414062 0.75 -0.6875 0.5625 -1.03125 C 0.382812 -1.382812 0.296875 -1.78125 0.296875 -2.21875 C 0.296875 -2.664062 0.382812 -3.054688 0.5625 -3.390625 C 0.75 -3.734375 1 -4 1.3125 -4.1875 C 1.632812 -4.382812 1.988281 -4.484375 2.375 -4.484375 Z M 3.90625 -2.203125 C 3.90625 -2.503906 3.84375 -2.769531 3.71875 -3 C 3.59375 -3.226562 3.425781 -3.398438 3.21875 -3.515625 C 3.019531 -3.628906 2.800781 -3.6875 2.5625 -3.6875 C 2.332031 -3.6875 2.113281 -3.628906 1.90625 -3.515625 C 1.707031 -3.398438 1.546875 -3.234375 1.421875 -3.015625 C 1.296875 -2.796875 1.234375 -2.53125 1.234375 -2.21875 C 1.234375 -1.914062 1.296875 -1.648438 1.421875 -1.421875 C 1.546875 -1.191406 1.707031 -1.015625 1.90625 -0.890625 C 2.113281 -0.773438 2.332031 -0.71875 2.5625 -0.71875 C 2.800781 -0.71875 3.019531 -0.773438 3.21875 -0.890625 C 3.425781 -1.015625 3.59375 -1.1875 3.71875 -1.40625 C 3.84375 -1.632812 3.90625 -1.898438 3.90625 -2.203125 Z M 3.90625 -2.203125 "/></g></g><g style="fill:#ffffff;fill-opacity:1;"><g transform="translate(59.700043, 215.88343)"><path style="stroke:none" d="M 2.875 -4.484375 C 3.21875 -4.484375 3.519531 -4.410156 3.78125 -4.265625 C 4.039062 -4.117188 4.242188 -3.90625 4.390625 -3.625 C 4.546875 -3.34375 4.625 -3 4.625 -2.59375 L 4.625 0 L 3.734375 0 L 3.734375 -2.46875 C 3.734375 -2.863281 3.632812 -3.164062 3.4375 -3.375 C 3.238281 -3.582031 2.96875 -3.6875 2.625 -3.6875 C 2.28125 -3.6875 2.007812 -3.582031 1.8125 -3.375 C 1.613281 -3.164062 1.515625 -2.863281 1.515625 -2.46875 L 1.515625 0 L 0.59375 0 L 0.59375 -5.921875 L 1.515625 -5.921875 L 1.515625 -3.890625 C 1.671875 -4.078125 1.863281 -4.222656 2.09375 -4.328125 C 2.332031 -4.429688 2.59375 -4.484375 2.875 -4.484375 Z M 2.875 -4.484375 "/></g></g><g style="fill:#ffffff;fill-opacity:1;"><g transform="translate(65.252174, 215.88343)"><path style="stroke:none" d="M 1.65625 -3.65625 L 1.65625 -1.21875 C 1.65625 -1.050781 1.691406 -0.929688 1.765625 -0.859375 C 1.847656 -0.796875 1.984375 -0.765625 2.171875 -0.765625 L 2.734375 -0.765625 L 2.734375 0 L 2.015625 0 C 1.609375 0 1.296875 -0.09375 1.078125 -0.28125 C 0.859375 -0.476562 0.75 -0.789062 0.75 -1.21875 L 0.75 -3.65625 L 0.21875 -3.65625 L 0.21875 -4.40625 L 0.75 -4.40625 L 0.75 -5.5 L 1.65625 -5.5 L 1.65625 -4.40625 L 2.734375 -4.40625 L 2.734375 -3.65625 Z M 1.65625 -3.65625 "/></g></g><g style="fill:#ffffff;fill-opacity:1;"><g transform="translate(68.588252, 215.88343)"><path style="stroke:none" d="M 1.0625 -4.984375 C 0.894531 -4.984375 0.753906 -5.039062 0.640625 -5.15625 C 0.535156 -5.269531 0.484375 -5.410156 0.484375 -5.578125 C 0.484375 -5.742188 0.535156 -5.878906 0.640625 -5.984375 C 0.753906 -6.097656 0.894531 -6.15625 1.0625 -6.15625 C 1.21875 -6.15625 1.351562 -6.097656 1.46875 -5.984375 C 1.582031 -5.878906 1.640625 -5.742188 1.640625 -5.578125 C 1.640625 -5.410156 1.582031 -5.269531 1.46875 -5.15625 C 1.351562 -5.039062 1.21875 -4.984375 1.0625 -4.984375 Z M 1.515625 -4.40625 L 1.515625 0 L 0.59375 0 L 0.59375 -4.40625 Z M 1.515625 -4.40625 "/></g></g><g style="fill:#ffffff;fill-opacity:1;"><g transform="translate(71.060312, 215.88343)"><path style="stroke:none" d="M 2.828125 -4.484375 C 3.171875 -4.484375 3.476562 -4.410156 3.75 -4.265625 C 4.03125 -4.117188 4.242188 -3.90625 4.390625 -3.625 C 4.546875 -3.34375 4.625 -3 4.625 -2.59375 L 4.625 0 L 3.734375 0 L 3.734375 -2.46875 C 3.734375 -2.863281 3.632812 -3.164062 3.4375 -3.375 C 3.238281 -3.582031 2.96875 -3.6875 2.625 -3.6875 C 2.28125 -3.6875 2.007812 -3.582031 1.8125 -3.375 C 1.613281 -3.164062 1.515625 -2.863281 1.515625 -2.46875 L 1.515625 0 L 0.59375 0 L 0.59375 -4.40625 L 1.515625 -4.40625 L 1.515625 -3.90625 C 1.660156 -4.082031 1.847656 -4.222656 2.078125 -4.328125 C 2.316406 -4.429688 2.566406 -4.484375 2.828125 -4.484375 Z M 2.828125 -4.484375 "/></g></g><g style="fill:#ffffff;fill-opacity:1;"><g transform="translate(76.612443, 215.88343)"><path style="stroke:none" d="M 2.375 -4.484375 C 2.71875 -4.484375 3.019531 -4.414062 3.28125 -4.28125 C 3.550781 -4.144531 3.757812 -3.972656 3.90625 -3.765625 L 3.90625 -4.40625 L 4.828125 -4.40625 L 4.828125 0.078125 C 4.828125 0.484375 4.738281 0.84375 4.5625 1.15625 C 4.394531 1.46875 4.148438 1.710938 3.828125 1.890625 C 3.503906 2.078125 3.117188 2.171875 2.671875 2.171875 C 2.078125 2.171875 1.582031 2.03125 1.1875 1.75 C 0.789062 1.476562 0.566406 1.097656 0.515625 0.609375 L 1.421875 0.609375 C 1.484375 0.835938 1.628906 1.023438 1.859375 1.171875 C 2.085938 1.316406 2.359375 1.390625 2.671875 1.390625 C 3.035156 1.390625 3.332031 1.273438 3.5625 1.046875 C 3.789062 0.828125 3.90625 0.503906 3.90625 0.078125 L 3.90625 -0.65625 C 3.75 -0.457031 3.535156 -0.285156 3.265625 -0.140625 C 3.003906 0.00390625 2.707031 0.078125 2.375 0.078125 C 1.988281 0.078125 1.632812 -0.0195312 1.3125 -0.21875 C 1 -0.414062 0.75 -0.6875 0.5625 -1.03125 C 0.382812 -1.382812 0.296875 -1.78125 0.296875 -2.21875 C 0.296875 -2.664062 0.382812 -3.054688 0.5625 -3.390625 C 0.75 -3.734375 1 -4 1.3125 -4.1875 C 1.632812 -4.382812 1.988281 -4.484375 2.375 -4.484375 Z M 3.90625 -2.203125 C 3.90625 -2.503906 3.84375 -2.769531 3.71875 -3 C 3.59375 -3.226562 3.425781 -3.398438 3.21875 -3.515625 C 3.019531 -3.628906 2.800781 -3.6875 2.5625 -3.6875 C 2.332031 -3.6875 2.113281 -3.628906 1.90625 -3.515625 C 1.707031 -3.398438 1.546875 -3.234375 1.421875 -3.015625 C 1.296875 -2.796875 1.234375 -2.53125 1.234375 -2.21875 C 1.234375 -1.914062 1.296875 -1.648438 1.421875 -1.421875 C 1.546875 -1.191406 1.707031 -1.015625 1.90625 -0.890625 C 2.113281 -0.773438 2.332031 -0.71875 2.5625 -0.71875 C 2.800781 -0.71875 3.019531 -0.773438 3.21875 -0.890625 C 3.425781 -1.015625 3.59375 -1.1875 3.71875 -1.40625 C 3.84375 -1.632812 3.90625 -1.898438 3.90625 -2.203125 Z M 3.90625 -2.203125 "/></g></g><g style="fill:#ffffff;fill-opacity:1;"><g transform="translate(82.396583, 215.88343)"><path style="stroke:none" d=""/></g></g><g style="fill:#ffffff;fill-opacity:1;"><g transform="translate(84.836639, 215.88343)"><path style="stroke:none" d="M 4.59375 -4.40625 L 4.59375 0 L 3.6875 0 L 3.6875 -0.515625 C 3.539062 -0.335938 3.347656 -0.195312 3.109375 -0.09375 C 2.878906 0.0078125 2.632812 0.0625 2.375 0.0625 C 2.03125 0.0625 1.71875 -0.0078125 1.4375 -0.15625 C 1.164062 -0.300781 0.953125 -0.515625 0.796875 -0.796875 C 0.640625 -1.078125 0.5625 -1.414062 0.5625 -1.8125 L 0.5625 -4.40625 L 1.46875 -4.40625 L 1.46875 -1.953125 C 1.46875 -1.554688 1.566406 -1.253906 1.765625 -1.046875 C 1.960938 -0.835938 2.226562 -0.734375 2.5625 -0.734375 C 2.90625 -0.734375 3.175781 -0.835938 3.375 -1.046875 C 3.582031 -1.253906 3.6875 -1.554688 3.6875 -1.953125 L 3.6875 -4.40625 Z M 4.59375 -4.40625 "/></g></g><g style="fill:#ffffff;fill-opacity:1;"><g transform="translate(90.38877, 215.88343)"><path style="stroke:none" d="M 1.515625 -3.765625 C 1.671875 -3.960938 1.878906 -4.128906 2.140625 -4.265625 C 2.410156 -4.410156 2.710938 -4.484375 3.046875 -4.484375 C 3.429688 -4.484375 3.78125 -4.382812 4.09375 -4.1875 C 4.414062 -4 4.664062 -3.734375 4.84375 -3.390625 C 5.03125 -3.054688 5.125 -2.664062 5.125 -2.21875 C 5.125 -1.78125 5.03125 -1.382812 4.84375 -1.03125 C 4.664062 -0.6875 4.414062 -0.414062 4.09375 -0.21875 C 3.78125 -0.0195312 3.429688 0.078125 3.046875 0.078125 C 2.710938 0.078125 2.414062 0.0078125 2.15625 -0.125 C 1.894531 -0.269531 1.679688 -0.441406 1.515625 -0.640625 L 1.515625 2.09375 L 0.59375 2.09375 L 0.59375 -4.40625 L 1.515625 -4.40625 Z M 4.1875 -2.21875 C 4.1875 -2.53125 4.125 -2.796875 4 -3.015625 C 3.875 -3.234375 3.707031 -3.398438 3.5 -3.515625 C 3.300781 -3.628906 3.082031 -3.6875 2.84375 -3.6875 C 2.613281 -3.6875 2.394531 -3.628906 2.1875 -3.515625 C 1.988281 -3.398438 1.828125 -3.226562 1.703125 -3 C 1.578125 -2.769531 1.515625 -2.503906 1.515625 -2.203125 C 1.515625 -1.898438 1.578125 -1.632812 1.703125 -1.40625 C 1.828125 -1.1875 1.988281 -1.015625 2.1875 -0.890625 C 2.394531 -0.773438 2.613281 -0.71875 2.84375 -0.71875 C 3.082031 -0.71875 3.300781 -0.773438 3.5 -0.890625 C 3.707031 -1.015625 3.875 -1.191406 4 -1.421875 C 4.125 -1.648438 4.1875 -1.914062 4.1875 -2.21875 Z M 4.1875 -2.21875 "/></g></g><g style="fill:#ffffff;fill-opacity:1;"><g transform="translate(96.17291, 215.88343)"><path style="stroke:none" d=""/></g></g><g style="fill:#ffffff;fill-opacity:1;"><g transform="translate(98.612966, 215.88343)"><path style="stroke:none" d="M 1.65625 -3.65625 L 1.65625 -1.21875 C 1.65625 -1.050781 1.691406 -0.929688 1.765625 -0.859375 C 1.847656 -0.796875 1.984375 -0.765625 2.171875 -0.765625 L 2.734375 -0.765625 L 2.734375 0 L 2.015625 0 C 1.609375 0 1.296875 -0.09375 1.078125 -0.28125 C 0.859375 -0.476562 0.75 -0.789062 0.75 -1.21875 L 0.75 -3.65625 L 0.21875 -3.65625 L 0.21875 -4.40625 L 0.75 -4.40625 L 0.75 -5.5 L 1.65625 -5.5 L 1.65625 -4.40625 L 2.734375 -4.40625 L 2.734375 -3.65625 Z M 1.65625 -3.65625 "/></g></g><g style="fill:#ffffff;fill-opacity:1;"><g transform="translate(101.949044, 215.88343)"><path style="stroke:none" d="M 2.875 -4.484375 C 3.21875 -4.484375 3.519531 -4.410156 3.78125 -4.265625 C 4.039062 -4.117188 4.242188 -3.90625 4.390625 -3.625 C 4.546875 -3.34375 4.625 -3 4.625 -2.59375 L 4.625 0 L 3.734375 0 L 3.734375 -2.46875 C 3.734375 -2.863281 3.632812 -3.164062 3.4375 -3.375 C 3.238281 -3.582031 2.96875 -3.6875 2.625 -3.6875 C 2.28125 -3.6875 2.007812 -3.582031 1.8125 -3.375 C 1.613281 -3.164062 1.515625 -2.863281 1.515625 -2.46875 L 1.515625 0 L 0.59375 0 L 0.59375 -5.921875 L 1.515625 -5.921875 L 1.515625 -3.890625 C 1.671875 -4.078125 1.863281 -4.222656 2.09375 -4.328125 C 2.332031 -4.429688 2.59375 -4.484375 2.875 -4.484375 Z M 2.875 -4.484375 "/></g></g><g style="fill:#ffffff;fill-opacity:1;"><g transform="translate(107.501175, 215.88343)"><path style="stroke:none" d="M 4.640625 -2.3125 C 4.640625 -2.144531 4.628906 -1.992188 4.609375 -1.859375 L 1.234375 -1.859375 C 1.265625 -1.515625 1.394531 -1.234375 1.625 -1.015625 C 1.863281 -0.804688 2.15625 -0.703125 2.5 -0.703125 C 2.988281 -0.703125 3.332031 -0.90625 3.53125 -1.3125 L 4.515625 -1.3125 C 4.378906 -0.90625 4.132812 -0.570312 3.78125 -0.3125 C 3.4375 -0.0507812 3.007812 0.078125 2.5 0.078125 C 2.070312 0.078125 1.691406 -0.015625 1.359375 -0.203125 C 1.023438 -0.398438 0.765625 -0.671875 0.578125 -1.015625 C 0.390625 -1.359375 0.296875 -1.753906 0.296875 -2.203125 C 0.296875 -2.660156 0.382812 -3.0625 0.5625 -3.40625 C 0.75 -3.75 1.007812 -4.015625 1.34375 -4.203125 C 1.675781 -4.390625 2.0625 -4.484375 2.5 -4.484375 C 2.914062 -4.484375 3.285156 -4.390625 3.609375 -4.203125 C 3.929688 -4.023438 4.179688 -3.769531 4.359375 -3.4375 C 4.546875 -3.113281 4.640625 -2.738281 4.640625 -2.3125 Z M 3.6875 -2.59375 C 3.6875 -2.9375 3.566406 -3.207031 3.328125 -3.40625 C 3.085938 -3.613281 2.796875 -3.71875 2.453125 -3.71875 C 2.140625 -3.71875 1.867188 -3.613281 1.640625 -3.40625 C 1.421875 -3.207031 1.289062 -2.9375 1.25 -2.59375 Z M 3.6875 -2.59375 "/></g></g><g style="fill:#ffffff;fill-opacity:1;"><g transform="translate(112.7973, 215.88343)"><path style="stroke:none" d=""/></g></g><g style="fill:#ffffff;fill-opacity:1;"><g transform="translate(115.237356, 215.88343)"><path style="stroke:none" d="M 6.515625 -4.40625 L 5.15625 0 L 4.1875 0 L 3.296875 -3.25 L 2.421875 0 L 1.453125 0 L 0.078125 -4.40625 L 1.015625 -4.40625 L 1.921875 -0.859375 L 2.859375 -4.40625 L 3.8125 -4.40625 L 4.71875 -0.875 L 5.625 -4.40625 Z M 6.515625 -4.40625 "/></g></g><g style="fill:#ffffff;fill-opacity:1;"><g transform="translate(122.197522, 215.88343)"><path style="stroke:none" d="M 0.296875 -2.21875 C 0.296875 -2.664062 0.382812 -3.054688 0.5625 -3.390625 C 0.75 -3.734375 1 -4 1.3125 -4.1875 C 1.632812 -4.382812 1.988281 -4.484375 2.375 -4.484375 C 2.71875 -4.484375 3.019531 -4.414062 3.28125 -4.28125 C 3.539062 -4.144531 3.75 -3.972656 3.90625 -3.765625 L 3.90625 -4.40625 L 4.828125 -4.40625 L 4.828125 0 L 3.90625 0 L 3.90625 -0.65625 C 3.75 -0.445312 3.535156 -0.269531 3.265625 -0.125 C 3.003906 0.0078125 2.703125 0.078125 2.359375 0.078125 C 1.984375 0.078125 1.632812 -0.0195312 1.3125 -0.21875 C 1 -0.414062 0.75 -0.6875 0.5625 -1.03125 C 0.382812 -1.382812 0.296875 -1.78125 0.296875 -2.21875 Z M 3.90625 -2.203125 C 3.90625 -2.503906 3.84375 -2.769531 3.71875 -3 C 3.59375 -3.226562 3.425781 -3.398438 3.21875 -3.515625 C 3.019531 -3.628906 2.800781 -3.6875 2.5625 -3.6875 C 2.332031 -3.6875 2.113281 -3.628906 1.90625 -3.515625 C 1.707031 -3.398438 1.546875 -3.234375 1.421875 -3.015625 C 1.296875 -2.796875 1.234375 -2.53125 1.234375 -2.21875 C 1.234375 -1.914062 1.296875 -1.648438 1.421875 -1.421875 C 1.546875 -1.191406 1.707031 -1.015625 1.90625 -0.890625 C 2.113281 -0.773438 2.332031 -0.71875 2.5625 -0.71875 C 2.800781 -0.71875 3.019531 -0.773438 3.21875 -0.890625 C 3.425781 -1.015625 3.59375 -1.1875 3.71875 -1.40625 C 3.84375 -1.632812 3.90625 -1.898438 3.90625 -2.203125 Z M 3.90625 -2.203125 "/></g></g><g style="fill:#ffffff;fill-opacity:1;"><g transform="translate(127.981662, 215.88343)"><path style="stroke:none" d="M 4.5625 -4.40625 L 1.859375 2.078125 L 0.921875 2.078125 L 1.8125 -0.078125 L 0.078125 -4.40625 L 1.09375 -4.40625 L 2.34375 -1.046875 L 3.625 -4.40625 Z M 4.5625 -4.40625 "/></g></g><g style="fill:#ffffff;fill-opacity:1;"><g transform="translate(132.997783, 215.88343)"><path style="stroke:none" d=""/></g></g><g style="fill:#ffffff;fill-opacity:1;"><g transform="translate(135.437839, 215.88343)"><path style="stroke:none" d="M 1.65625 -3.65625 L 1.65625 -1.21875 C 1.65625 -1.050781 1.691406 -0.929688 1.765625 -0.859375 C 1.847656 -0.796875 1.984375 -0.765625 2.171875 -0.765625 L 2.734375 -0.765625 L 2.734375 0 L 2.015625 0 C 1.609375 0 1.296875 -0.09375 1.078125 -0.28125 C 0.859375 -0.476562 0.75 -0.789062 0.75 -1.21875 L 0.75 -3.65625 L 0.21875 -3.65625 L 0.21875 -4.40625 L 0.75 -4.40625 L 0.75 -5.5 L 1.65625 -5.5 L 1.65625 -4.40625 L 2.734375 -4.40625 L 2.734375 -3.65625 Z M 1.65625 -3.65625 "/></g></g><g style="fill:#ffffff;fill-opacity:1;"><g transform="translate(138.773917, 215.88343)"><path style="stroke:none" d="M 2.515625 0.078125 C 2.097656 0.078125 1.71875 -0.015625 1.375 -0.203125 C 1.039062 -0.398438 0.773438 -0.671875 0.578125 -1.015625 C 0.390625 -1.359375 0.296875 -1.753906 0.296875 -2.203125 C 0.296875 -2.648438 0.394531 -3.046875 0.59375 -3.390625 C 0.789062 -3.742188 1.0625 -4.015625 1.40625 -4.203125 C 1.75 -4.390625 2.128906 -4.484375 2.546875 -4.484375 C 2.972656 -4.484375 3.351562 -4.390625 3.6875 -4.203125 C 4.03125 -4.015625 4.300781 -3.742188 4.5 -3.390625 C 4.695312 -3.046875 4.796875 -2.648438 4.796875 -2.203125 C 4.796875 -1.753906 4.691406 -1.359375 4.484375 -1.015625 C 4.285156 -0.671875 4.007812 -0.398438 3.65625 -0.203125 C 3.3125 -0.015625 2.929688 0.078125 2.515625 0.078125 Z M 2.515625 -0.71875 C 2.742188 -0.71875 2.960938 -0.773438 3.171875 -0.890625 C 3.378906 -1.003906 3.546875 -1.171875 3.671875 -1.390625 C 3.796875 -1.617188 3.859375 -1.890625 3.859375 -2.203125 C 3.859375 -2.523438 3.796875 -2.796875 3.671875 -3.015625 C 3.554688 -3.242188 3.394531 -3.410156 3.1875 -3.515625 C 2.988281 -3.628906 2.769531 -3.6875 2.53125 -3.6875 C 2.300781 -3.6875 2.082031 -3.628906 1.875 -3.515625 C 1.675781 -3.410156 1.519531 -3.242188 1.40625 -3.015625 C 1.289062 -2.796875 1.234375 -2.523438 1.234375 -2.203125 C 1.234375 -1.734375 1.351562 -1.367188 1.59375 -1.109375 C 1.832031 -0.847656 2.140625 -0.71875 2.515625 -0.71875 Z M 2.515625 -0.71875 "/></g></g><g style="fill:#ffffff;fill-opacity:1;"><g transform="translate(144.238044, 215.88343)"><path style="stroke:none" d=""/></g></g><g style="fill:#ffffff;fill-opacity:1;"><g transform="translate(146.6781, 215.88343)"><path style="stroke:none" d="M 4.640625 -2.3125 C 4.640625 -2.144531 4.628906 -1.992188 4.609375 -1.859375 L 1.234375 -1.859375 C 1.265625 -1.515625 1.394531 -1.234375 1.625 -1.015625 C 1.863281 -0.804688 2.15625 -0.703125 2.5 -0.703125 C 2.988281 -0.703125 3.332031 -0.90625 3.53125 -1.3125 L 4.515625 -1.3125 C 4.378906 -0.90625 4.132812 -0.570312 3.78125 -0.3125 C 3.4375 -0.0507812 3.007812 0.078125 2.5 0.078125 C 2.070312 0.078125 1.691406 -0.015625 1.359375 -0.203125 C 1.023438 -0.398438 0.765625 -0.671875 0.578125 -1.015625 C 0.390625 -1.359375 0.296875 -1.753906 0.296875 -2.203125 C 0.296875 -2.660156 0.382812 -3.0625 0.5625 -3.40625 C 0.75 -3.75 1.007812 -4.015625 1.34375 -4.203125 C 1.675781 -4.390625 2.0625 -4.484375 2.5 -4.484375 C 2.914062 -4.484375 3.285156 -4.390625 3.609375 -4.203125 C 3.929688 -4.023438 4.179688 -3.769531 4.359375 -3.4375 C 4.546875 -3.113281 4.640625 -2.738281 4.640625 -2.3125 Z M 3.6875 -2.59375 C 3.6875 -2.9375 3.566406 -3.207031 3.328125 -3.40625 C 3.085938 -3.613281 2.796875 -3.71875 2.453125 -3.71875 C 2.140625 -3.71875 1.867188 -3.613281 1.640625 -3.40625 C 1.421875 -3.207031 1.289062 -2.9375 1.25 -2.59375 Z M 3.6875 -2.59375 "/></g></g><g style="fill:#ffffff;fill-opacity:1;"><g transform="translate(151.974224, 215.88343)"><path style="stroke:none" d="M 0.296875 -2.21875 C 0.296875 -2.664062 0.382812 -3.054688 0.5625 -3.390625 C 0.75 -3.734375 1 -4 1.3125 -4.1875 C 1.632812 -4.382812 1.992188 -4.484375 2.390625 -4.484375 C 2.671875 -4.484375 2.953125 -4.421875 3.234375 -4.296875 C 3.515625 -4.171875 3.738281 -4.003906 3.90625 -3.796875 L 3.90625 -5.921875 L 4.828125 -5.921875 L 4.828125 0 L 3.90625 0 L 3.90625 -0.65625 C 3.757812 -0.445312 3.550781 -0.269531 3.28125 -0.125 C 3.019531 0.0078125 2.71875 0.078125 2.375 0.078125 C 1.988281 0.078125 1.632812 -0.0195312 1.3125 -0.21875 C 1 -0.414062 0.75 -0.6875 0.5625 -1.03125 C 0.382812 -1.382812 0.296875 -1.78125 0.296875 -2.21875 Z M 3.90625 -2.203125 C 3.90625 -2.503906 3.84375 -2.769531 3.71875 -3 C 3.59375 -3.226562 3.425781 -3.398438 3.21875 -3.515625 C 3.019531 -3.628906 2.800781 -3.6875 2.5625 -3.6875 C 2.332031 -3.6875 2.113281 -3.628906 1.90625 -3.515625 C 1.707031 -3.398438 1.546875 -3.234375 1.421875 -3.015625 C 1.296875 -2.796875 1.234375 -2.53125 1.234375 -2.21875 C 1.234375 -1.914062 1.296875 -1.648438 1.421875 -1.421875 C 1.546875 -1.191406 1.707031 -1.015625 1.90625 -0.890625 C 2.113281 -0.773438 2.332031 -0.71875 2.5625 -0.71875 C 2.800781 -0.71875 3.019531 -0.773438 3.21875 -0.890625 C 3.425781 -1.015625 3.59375 -1.1875 3.71875 -1.40625 C 3.84375 -1.632812 3.90625 -1.898438 3.90625 -2.203125 Z M 3.90625 -2.203125 "/></g></g><g style="fill:#ffffff;fill-opacity:1;"><g transform="translate(157.758364, 215.88343)"><path style="stroke:none" d="M 4.59375 -4.40625 L 4.59375 0 L 3.6875 0 L 3.6875 -0.515625 C 3.539062 -0.335938 3.347656 -0.195312 3.109375 -0.09375 C 2.878906 0.0078125 2.632812 0.0625 2.375 0.0625 C 2.03125 0.0625 1.71875 -0.0078125 1.4375 -0.15625 C 1.164062 -0.300781 0.953125 -0.515625 0.796875 -0.796875 C 0.640625 -1.078125 0.5625 -1.414062 0.5625 -1.8125 L 0.5625 -4.40625 L 1.46875 -4.40625 L 1.46875 -1.953125 C 1.46875 -1.554688 1.566406 -1.253906 1.765625 -1.046875 C 1.960938 -0.835938 2.226562 -0.734375 2.5625 -0.734375 C 2.90625 -0.734375 3.175781 -0.835938 3.375 -1.046875 C 3.582031 -1.253906 3.6875 -1.554688 3.6875 -1.953125 L 3.6875 -4.40625 Z M 4.59375 -4.40625 "/></g></g><g style="fill:#ffffff;fill-opacity:1;"><g transform="translate(163.310495, 215.88343)"><path style="stroke:none" d="M 0.296875 -2.203125 C 0.296875 -2.660156 0.382812 -3.0625 0.5625 -3.40625 C 0.75 -3.75 1.003906 -4.015625 1.328125 -4.203125 C 1.660156 -4.390625 2.035156 -4.484375 2.453125 -4.484375 C 2.984375 -4.484375 3.421875 -4.351562 3.765625 -4.09375 C 4.117188 -3.84375 4.359375 -3.484375 4.484375 -3.015625 L 3.5 -3.015625 C 3.425781 -3.234375 3.300781 -3.40625 3.125 -3.53125 C 2.945312 -3.65625 2.722656 -3.71875 2.453125 -3.71875 C 2.078125 -3.71875 1.78125 -3.582031 1.5625 -3.3125 C 1.34375 -3.050781 1.234375 -2.679688 1.234375 -2.203125 C 1.234375 -1.734375 1.34375 -1.363281 1.5625 -1.09375 C 1.78125 -0.832031 2.078125 -0.703125 2.453125 -0.703125 C 2.984375 -0.703125 3.332031 -0.929688 3.5 -1.390625 L 4.484375 -1.390625 C 4.359375 -0.941406 4.117188 -0.582031 3.765625 -0.3125 C 3.410156 -0.0507812 2.972656 0.078125 2.453125 0.078125 C 2.035156 0.078125 1.660156 -0.015625 1.328125 -0.203125 C 1.003906 -0.398438 0.75 -0.671875 0.5625 -1.015625 C 0.382812 -1.359375 0.296875 -1.753906 0.296875 -2.203125 Z M 0.296875 -2.203125 "/></g></g><g style="fill:#ffffff;fill-opacity:1;"><g transform="translate(168.470621, 215.88343)"><path style="stroke:none" d="M 0.296875 -2.21875 C 0.296875 -2.664062 0.382812 -3.054688 0.5625 -3.390625 C 0.75 -3.734375 1 -4 1.3125 -4.1875 C 1.632812 -4.382812 1.988281 -4.484375 2.375 -4.484375 C 2.71875 -4.484375 3.019531 -4.414062 3.28125 -4.28125 C 3.539062 -4.144531 3.75 -3.972656 3.90625 -3.765625 L 3.90625 -4.40625 L 4.828125 -4.40625 L 4.828125 0 L 3.90625 0 L 3.90625 -0.65625 C 3.75 -0.445312 3.535156 -0.269531 3.265625 -0.125 C 3.003906 0.0078125 2.703125 0.078125 2.359375 0.078125 C 1.984375 0.078125 1.632812 -0.0195312 1.3125 -0.21875 C 1 -0.414062 0.75 -0.6875 0.5625 -1.03125 C 0.382812 -1.382812 0.296875 -1.78125 0.296875 -2.21875 Z M 3.90625 -2.203125 C 3.90625 -2.503906 3.84375 -2.769531 3.71875 -3 C 3.59375 -3.226562 3.425781 -3.398438 3.21875 -3.515625 C 3.019531 -3.628906 2.800781 -3.6875 2.5625 -3.6875 C 2.332031 -3.6875 2.113281 -3.628906 1.90625 -3.515625 C 1.707031 -3.398438 1.546875 -3.234375 1.421875 -3.015625 C 1.296875 -2.796875 1.234375 -2.53125 1.234375 -2.21875 C 1.234375 -1.914062 1.296875 -1.648438 1.421875 -1.421875 C 1.546875 -1.191406 1.707031 -1.015625 1.90625 -0.890625 C 2.113281 -0.773438 2.332031 -0.71875 2.5625 -0.71875 C 2.800781 -0.71875 3.019531 -0.773438 3.21875 -0.890625 C 3.425781 -1.015625 3.59375 -1.1875 3.71875 -1.40625 C 3.84375 -1.632812 3.90625 -1.898438 3.90625 -2.203125 Z M 3.90625 -2.203125 "/></g></g><g style="fill:#ffffff;fill-opacity:1;"><g transform="translate(174.254761, 215.88343)"><path style="stroke:none" d="M 1.65625 -3.65625 L 1.65625 -1.21875 C 1.65625 -1.050781 1.691406 -0.929688 1.765625 -0.859375 C 1.847656 -0.796875 1.984375 -0.765625 2.171875 -0.765625 L 2.734375 -0.765625 L 2.734375 0 L 2.015625 0 C 1.609375 0 1.296875 -0.09375 1.078125 -0.28125 C 0.859375 -0.476562 0.75 -0.789062 0.75 -1.21875 L 0.75 -3.65625 L 0.21875 -3.65625 L 0.21875 -4.40625 L 0.75 -4.40625 L 0.75 -5.5 L 1.65625 -5.5 L 1.65625 -4.40625 L 2.734375 -4.40625 L 2.734375 -3.65625 Z M 1.65625 -3.65625 "/></g></g><g style="fill:#ffffff;fill-opacity:1;"><g transform="translate(177.590839, 215.88343)"><path style="stroke:none" d="M 1.0625 -4.984375 C 0.894531 -4.984375 0.753906 -5.039062 0.640625 -5.15625 C 0.535156 -5.269531 0.484375 -5.410156 0.484375 -5.578125 C 0.484375 -5.742188 0.535156 -5.878906 0.640625 -5.984375 C 0.753906 -6.097656 0.894531 -6.15625 1.0625 -6.15625 C 1.21875 -6.15625 1.351562 -6.097656 1.46875 -5.984375 C 1.582031 -5.878906 1.640625 -5.742188 1.640625 -5.578125 C 1.640625 -5.410156 1.582031 -5.269531 1.46875 -5.15625 C 1.351562 -5.039062 1.21875 -4.984375 1.0625 -4.984375 Z M 1.515625 -4.40625 L 1.515625 0 L 0.59375 0 L 0.59375 -4.40625 Z M 1.515625 -4.40625 "/></g></g><g style="fill:#ffffff;fill-opacity:1;"><g transform="translate(180.062899, 215.88343)"><path style="stroke:none" d="M 2.515625 0.078125 C 2.097656 0.078125 1.71875 -0.015625 1.375 -0.203125 C 1.039062 -0.398438 0.773438 -0.671875 0.578125 -1.015625 C 0.390625 -1.359375 0.296875 -1.753906 0.296875 -2.203125 C 0.296875 -2.648438 0.394531 -3.046875 0.59375 -3.390625 C 0.789062 -3.742188 1.0625 -4.015625 1.40625 -4.203125 C 1.75 -4.390625 2.128906 -4.484375 2.546875 -4.484375 C 2.972656 -4.484375 3.351562 -4.390625 3.6875 -4.203125 C 4.03125 -4.015625 4.300781 -3.742188 4.5 -3.390625 C 4.695312 -3.046875 4.796875 -2.648438 4.796875 -2.203125 C 4.796875 -1.753906 4.691406 -1.359375 4.484375 -1.015625 C 4.285156 -0.671875 4.007812 -0.398438 3.65625 -0.203125 C 3.3125 -0.015625 2.929688 0.078125 2.515625 0.078125 Z M 2.515625 -0.71875 C 2.742188 -0.71875 2.960938 -0.773438 3.171875 -0.890625 C 3.378906 -1.003906 3.546875 -1.171875 3.671875 -1.390625 C 3.796875 -1.617188 3.859375 -1.890625 3.859375 -2.203125 C 3.859375 -2.523438 3.796875 -2.796875 3.671875 -3.015625 C 3.554688 -3.242188 3.394531 -3.410156 3.1875 -3.515625 C 2.988281 -3.628906 2.769531 -3.6875 2.53125 -3.6875 C 2.300781 -3.6875 2.082031 -3.628906 1.875 -3.515625 C 1.675781 -3.410156 1.519531 -3.242188 1.40625 -3.015625 C 1.289062 -2.796875 1.234375 -2.523438 1.234375 -2.203125 C 1.234375 -1.734375 1.351562 -1.367188 1.59375 -1.109375 C 1.832031 -0.847656 2.140625 -0.71875 2.515625 -0.71875 Z M 2.515625 -0.71875 "/></g></g><g style="fill:#ffffff;fill-opacity:1;"><g transform="translate(185.527026, 215.88343)"><path style="stroke:none" d="M 2.828125 -4.484375 C 3.171875 -4.484375 3.476562 -4.410156 3.75 -4.265625 C 4.03125 -4.117188 4.242188 -3.90625 4.390625 -3.625 C 4.546875 -3.34375 4.625 -3 4.625 -2.59375 L 4.625 0 L 3.734375 0 L 3.734375 -2.46875 C 3.734375 -2.863281 3.632812 -3.164062 3.4375 -3.375 C 3.238281 -3.582031 2.96875 -3.6875 2.625 -3.6875 C 2.28125 -3.6875 2.007812 -3.582031 1.8125 -3.375 C 1.613281 -3.164062 1.515625 -2.863281 1.515625 -2.46875 L 1.515625 0 L 0.59375 0 L 0.59375 -4.40625 L 1.515625 -4.40625 L 1.515625 -3.90625 C 1.660156 -4.082031 1.847656 -4.222656 2.078125 -4.328125 C 2.316406 -4.429688 2.566406 -4.484375 2.828125 -4.484375 Z M 2.828125 -4.484375 "/></g></g></g></svg>