<svg xmlns="http://www.w3.org/2000/svg" xmlns:xlink="http://www.w3.org/1999/xlink" width="1920" zoomAndPan="magnify" viewBox="0 0 1440 809.999993" height="1080" preserveAspectRatio="xMidYMid meet" version="1.2"><defs><clipPath id="27a651c543"><path d="M 1094.070312 367.597656 L 1106.339844 367.597656 L 1106.339844 370.183594 L 1094.070312 370.183594 Z M 1094.070312 367.597656 "/></clipPath><clipPath id="1364f024dd"><path d="M 1099 300.285156 L 1102 300.285156 L 1102 313 L 1099 313 Z M 1099 300.285156 "/></clipPath><clipPath id="b2f0f9f15e"><path d="M 1122.246094 333.707031 L 1134.628906 333.707031 L 1134.628906 335.722656 L 1122.246094 335.722656 Z M 1122.246094 333.707031 "/></clipPath><clipPath id="fd83c7ab59"><path d="M 1065.78125 333 L 1079 333 L 1079 336 L 1065.78125 336 Z M 1065.78125 333 "/></clipPath></defs><g id="8c8e0ac284"><g style="fill:#ffcc00;fill-opacity:1;"><g transform="translate(369.250045, 454.937488)"><path style="stroke:none" d="M 42.34375 -35.6875 C 44.863281 -35.289062 47.164062 -34.265625 49.25 -32.609375 C 51.34375 -30.953125 53 -28.894531 54.21875 -26.4375 C 55.445312 -23.988281 56.0625 -21.375 56.0625 -18.59375 C 56.0625 -15.082031 55.164062 -11.914062 53.375 -9.09375 C 51.59375 -6.28125 48.992188 -4.0625 45.578125 -2.4375 C 42.160156 -0.8125 38.132812 0 33.5 0 L 7.65625 0 L 7.65625 -69.28125 L 32.5 -69.28125 C 37.207031 -69.28125 41.21875 -68.5 44.53125 -66.9375 C 47.84375 -65.382812 50.328125 -63.28125 51.984375 -60.625 C 53.640625 -57.976562 54.46875 -55 54.46875 -51.6875 C 54.46875 -47.582031 53.359375 -44.1875 51.140625 -41.5 C 48.921875 -38.8125 45.988281 -36.875 42.34375 -35.6875 Z M 16.703125 -39.359375 L 31.90625 -39.359375 C 36.144531 -39.359375 39.425781 -40.351562 41.75 -42.34375 C 44.070312 -44.332031 45.234375 -47.082031 45.234375 -50.59375 C 45.234375 -54.101562 44.070312 -56.851562 41.75 -58.84375 C 39.425781 -60.832031 36.078125 -61.828125 31.703125 -61.828125 L 16.703125 -61.828125 Z M 32.703125 -7.453125 C 37.210938 -7.453125 40.722656 -8.507812 43.234375 -10.625 C 45.753906 -12.75 47.015625 -15.703125 47.015625 -19.484375 C 47.015625 -23.328125 45.6875 -26.359375 43.03125 -28.578125 C 40.382812 -30.796875 36.84375 -31.90625 32.40625 -31.90625 L 16.703125 -31.90625 L 16.703125 -7.453125 Z M 32.703125 -7.453125 "/></g></g><g style="fill:#ffcc00;fill-opacity:1;"><g transform="translate(436.248992, 454.937488)"><path style="stroke:none" d="M 44.140625 0 L 27.640625 -28.328125 L 16.703125 -28.328125 L 16.703125 0 L 7.65625 0 L 7.65625 -69.28125 L 30.015625 -69.28125 C 35.253906 -69.28125 39.675781 -68.382812 43.28125 -66.59375 C 46.894531 -64.8125 49.597656 -62.394531 51.390625 -59.34375 C 53.179688 -56.289062 54.078125 -52.8125 54.078125 -48.90625 C 54.078125 -44.132812 52.703125 -39.925781 49.953125 -36.28125 C 47.203125 -32.632812 43.078125 -30.21875 37.578125 -29.03125 L 54.96875 0 Z M 16.703125 -35.59375 L 30.015625 -35.59375 C 34.921875 -35.59375 38.597656 -36.800781 41.046875 -39.21875 C 43.503906 -41.632812 44.734375 -44.863281 44.734375 -48.90625 C 44.734375 -53.019531 43.519531 -56.203125 41.09375 -58.453125 C 38.675781 -60.703125 34.984375 -61.828125 30.015625 -61.828125 L 16.703125 -61.828125 Z M 16.703125 -35.59375 "/></g></g><g style="fill:#ffcc00;fill-opacity:1;"><g transform="translate(502.750945, 454.937488)"><path style="stroke:none" d="M 16.703125 -69.28125 L 16.703125 0 L 7.65625 0 L 7.65625 -69.28125 Z M 16.703125 -69.28125 "/></g></g><g style="fill:#ffcc00;fill-opacity:1;"><g transform="translate(533.268982, 454.937488)"><path style="stroke:none" d="M 60.140625 -49.203125 C 58.222656 -53.242188 55.441406 -56.375 51.796875 -58.59375 C 48.148438 -60.820312 43.90625 -61.9375 39.0625 -61.9375 C 34.226562 -61.9375 29.867188 -60.820312 25.984375 -58.59375 C 22.109375 -56.375 19.0625 -53.191406 16.84375 -49.046875 C 14.625 -44.910156 13.515625 -40.125 13.515625 -34.6875 C 13.515625 -29.257812 14.625 -24.488281 16.84375 -20.375 C 19.0625 -16.269531 22.109375 -13.109375 25.984375 -10.890625 C 29.867188 -8.671875 34.226562 -7.5625 39.0625 -7.5625 C 45.820312 -7.5625 51.390625 -9.582031 55.765625 -13.625 C 60.140625 -17.664062 62.691406 -23.128906 63.421875 -30.015625 L 35.78125 -30.015625 L 35.78125 -37.375 L 73.0625 -37.375 L 73.0625 -30.421875 C 72.53125 -24.722656 70.738281 -19.503906 67.6875 -14.765625 C 64.644531 -10.023438 60.640625 -6.28125 55.671875 -3.53125 C 50.703125 -0.78125 45.164062 0.59375 39.0625 0.59375 C 32.632812 0.59375 26.769531 -0.910156 21.46875 -3.921875 C 16.164062 -6.941406 11.972656 -11.132812 8.890625 -16.5 C 5.816406 -21.863281 4.28125 -27.925781 4.28125 -34.6875 C 4.28125 -41.445312 5.816406 -47.523438 8.890625 -52.921875 C 11.972656 -58.328125 16.164062 -62.535156 21.46875 -65.546875 C 26.769531 -68.566406 32.632812 -70.078125 39.0625 -70.078125 C 46.414062 -70.078125 52.925781 -68.253906 58.59375 -64.609375 C 64.257812 -60.960938 68.382812 -55.828125 70.96875 -49.203125 Z M 60.140625 -49.203125 "/></g></g><g style="fill:#ffcc00;fill-opacity:1;"><g transform="translate(616.669429, 454.937488)"><path style="stroke:none" d="M 61.03125 -69.28125 L 61.03125 0 L 51.984375 0 L 51.984375 -31.40625 L 16.703125 -31.40625 L 16.703125 0 L 7.65625 0 L 7.65625 -69.28125 L 16.703125 -69.28125 L 16.703125 -38.875 L 51.984375 -38.875 L 51.984375 -69.28125 Z M 61.03125 -69.28125 "/></g></g><g style="fill:#ffcc00;fill-opacity:1;"><g transform="translate(691.521216, 454.937488)"><path style="stroke:none" d="M 50.296875 -69.28125 L 50.296875 -61.9375 L 31.40625 -61.9375 L 31.40625 0 L 22.359375 0 L 22.359375 -61.9375 L 3.375 -61.9375 L 3.375 -69.28125 Z M 50.296875 -69.28125 "/></g></g><path style="fill:none;stroke-width:6;stroke-linecap:butt;stroke-linejoin:miter;stroke:#ffcc00;stroke-opacity:1;stroke-miterlimit:4;" d="M -0.000192564 2.999351 L 22.552372 2.999351 " transform="matrix(0,-1.62,1.62,0,671.281676,368.796563)"/><path style="fill:none;stroke-width:6;stroke-linecap:butt;stroke-linejoin:miter;stroke:#ffcc00;stroke-opacity:1;stroke-miterlimit:4;" d="M -0.000266168 2.999146 L 239.366163 2.999146 " transform="matrix(-1.617568,0,0,-1.617568,1058.804257,340.187259)"/><path style="fill:none;stroke-width:6;stroke-linecap:butt;stroke-linejoin:miter;stroke:#ffcc00;stroke-opacity:1;stroke-miterlimit:4;" d="M -0.000793106 3.001106 L 75.441558 3.000592 " transform="matrix(0.000373418,-1.610605,1.610605,0.000373418,1095.420311,507.817914)"/><path style="fill:none;stroke-width:6;stroke-linecap:butt;stroke-linejoin:miter;stroke:#ffcc00;stroke-opacity:1;stroke-miterlimit:4;" d="M 0.0000308504 3.00078 L 14.043172 3.00078 " transform="matrix(0.00000000282114,-1.616392,1.616392,0.00000000282114,820.360501,509.695362)"/><path style="fill:none;stroke-width:6;stroke-linecap:butt;stroke-linejoin:miter;stroke:#ffcc00;stroke-opacity:1;stroke-miterlimit:4;" d="M 0.000361338 3.000473 L 172.96766 3.000473 " transform="matrix(-1.62,-0.00000000282743,0.00000000282743,-1.62,1105.426367,509.45061)"/><path style=" stroke:none;fill-rule:nonzero;fill:#ffcc00;fill-opacity:1;" d="M 1100.195312 319.007812 C 1096.5625 319.007812 1093.136719 320.359375 1090.472656 322.863281 C 1087.585938 325.578125 1085.996094 329.253906 1085.996094 333.21875 C 1085.996094 336.433594 1087.039062 339.464844 1089.015625 341.980469 C 1091.726562 345.433594 1093.160156 349.425781 1093.160156 353.527344 L 1093.160156 356.027344 C 1093.160156 356.445312 1093.5 356.789062 1093.921875 356.789062 L 1106.507812 356.789062 C 1106.886719 356.789062 1107.199219 356.480469 1107.199219 356.097656 L 1107.199219 353.582031 C 1107.199219 349.449219 1108.644531 345.382812 1111.265625 342.136719 C 1113.488281 339.382812 1114.601562 335.910156 1114.390625 332.359375 C 1113.976562 325.320312 1108.144531 319.46875 1101.109375 319.035156 C 1100.800781 319.015625 1100.5 319.007812 1100.195312 319.007812 Z M 1106.507812 358.792969 L 1093.921875 358.792969 C 1092.394531 358.792969 1091.15625 357.550781 1091.15625 356.027344 L 1091.15625 353.527344 C 1091.15625 349.878906 1089.871094 346.316406 1087.441406 343.21875 C 1085.183594 340.34375 1083.988281 336.886719 1083.988281 333.21875 C 1083.988281 328.761719 1085.851562 324.457031 1089.097656 321.402344 C 1092.394531 318.304688 1096.703125 316.753906 1101.230469 317.035156 C 1109.394531 317.539062 1115.914062 324.074219 1116.394531 332.242188 C 1116.632812 336.292969 1115.363281 340.253906 1112.828125 343.394531 C 1110.488281 346.289062 1109.203125 349.90625 1109.203125 353.582031 L 1109.203125 356.097656 C 1109.203125 357.585938 1107.996094 358.792969 1106.507812 358.792969 "/><path style=" stroke:none;fill-rule:nonzero;fill:#ffcc00;fill-opacity:1;" d="M 1107.183594 361.441406 L 1093.226562 361.441406 C 1092.671875 361.441406 1092.222656 360.992188 1092.222656 360.4375 C 1092.222656 359.882812 1092.671875 359.433594 1093.226562 359.433594 L 1107.183594 359.433594 C 1107.738281 359.433594 1108.1875 359.882812 1108.1875 360.4375 C 1108.1875 360.992188 1107.738281 361.441406 1107.183594 361.441406 "/><path style=" stroke:none;fill-rule:nonzero;fill:#ffcc00;fill-opacity:1;" d="M 1107.183594 364.113281 L 1093.226562 364.113281 C 1092.671875 364.113281 1092.222656 363.664062 1092.222656 363.113281 C 1092.222656 362.558594 1092.671875 362.109375 1093.226562 362.109375 L 1107.183594 362.109375 C 1107.738281 362.109375 1108.1875 362.558594 1108.1875 363.113281 C 1108.1875 363.664062 1107.738281 364.113281 1107.183594 364.113281 "/><path style=" stroke:none;fill-rule:nonzero;fill:#ffcc00;fill-opacity:1;" d="M 1107.183594 366.789062 L 1093.226562 366.789062 C 1092.671875 366.789062 1092.222656 366.339844 1092.222656 365.785156 C 1092.222656 365.230469 1092.671875 364.78125 1093.226562 364.78125 L 1107.183594 364.78125 C 1107.738281 364.78125 1108.1875 365.230469 1108.1875 365.785156 C 1108.1875 366.339844 1107.738281 366.789062 1107.183594 366.789062 "/><g clip-rule="nonzero" clip-path="url(#27a651c543)"><path style=" stroke:none;fill-rule:nonzero;fill:#ffcc00;fill-opacity:1;" d="M 1105.4375 370.183594 L 1094.972656 370.183594 L 1094.082031 367.601562 L 1106.328125 367.601562 L 1105.4375 370.183594 "/></g><g clip-rule="nonzero" clip-path="url(#1364f024dd)"><path style=" stroke:none;fill-rule:nonzero;fill:#ffcc00;fill-opacity:1;" d="M 1100.207031 312.671875 C 1099.652344 312.671875 1099.203125 312.222656 1099.203125 311.667969 L 1099.203125 301.292969 C 1099.203125 300.738281 1099.652344 300.289062 1100.207031 300.289062 C 1100.757812 300.289062 1101.207031 300.738281 1101.207031 301.292969 L 1101.207031 311.667969 C 1101.207031 312.222656 1100.757812 312.671875 1100.207031 312.671875 "/></g><path style=" stroke:none;fill-rule:nonzero;fill:#ffcc00;fill-opacity:1;" d="M 1116.503906 319.421875 C 1116.246094 319.421875 1115.988281 319.324219 1115.792969 319.128906 C 1115.402344 318.734375 1115.402344 318.101562 1115.792969 317.710938 L 1123.128906 310.375 C 1123.523438 309.980469 1124.15625 309.980469 1124.546875 310.375 C 1124.941406 310.765625 1124.941406 311.398438 1124.546875 311.792969 L 1117.210938 319.128906 C 1117.015625 319.324219 1116.757812 319.421875 1116.503906 319.421875 "/><g clip-rule="nonzero" clip-path="url(#b2f0f9f15e)"><path style=" stroke:none;fill-rule:nonzero;fill:#ffcc00;fill-opacity:1;" d="M 1133.628906 335.71875 L 1123.253906 335.71875 C 1122.699219 335.71875 1122.25 335.269531 1122.25 334.714844 C 1122.25 334.160156 1122.699219 333.714844 1123.253906 333.714844 L 1133.628906 333.714844 C 1134.179688 333.714844 1134.628906 334.160156 1134.628906 334.714844 C 1134.628906 335.269531 1134.179688 335.71875 1133.628906 335.71875 "/></g><path style=" stroke:none;fill-rule:nonzero;fill:#ffcc00;fill-opacity:1;" d="M 1123.839844 359.351562 C 1123.582031 359.351562 1123.324219 359.253906 1123.128906 359.058594 L 1115.792969 351.722656 C 1115.402344 351.332031 1115.402344 350.695312 1115.792969 350.304688 C 1116.1875 349.914062 1116.820312 349.914062 1117.210938 350.304688 L 1124.546875 357.640625 C 1124.941406 358.03125 1124.941406 358.667969 1124.546875 359.058594 C 1124.351562 359.253906 1124.09375 359.351562 1123.839844 359.351562 "/><path style=" stroke:none;fill-rule:nonzero;fill:#ffcc00;fill-opacity:1;" d="M 1076.570312 359.351562 C 1076.316406 359.351562 1076.058594 359.253906 1075.863281 359.058594 C 1075.472656 358.667969 1075.472656 358.03125 1075.863281 357.640625 L 1083.199219 350.304688 C 1083.589844 349.914062 1084.226562 349.914062 1084.617188 350.304688 C 1085.007812 350.695312 1085.007812 351.332031 1084.617188 351.722656 L 1077.28125 359.058594 C 1077.085938 359.253906 1076.828125 359.351562 1076.570312 359.351562 "/><g clip-rule="nonzero" clip-path="url(#fd83c7ab59)"><path style=" stroke:none;fill-rule:nonzero;fill:#ffcc00;fill-opacity:1;" d="M 1077.15625 335.71875 L 1066.78125 335.71875 C 1066.230469 335.71875 1065.78125 335.269531 1065.78125 334.714844 C 1065.78125 334.160156 1066.230469 333.710938 1066.78125 333.710938 L 1077.15625 333.710938 C 1077.710938 333.710938 1078.160156 334.160156 1078.160156 334.714844 C 1078.160156 335.269531 1077.710938 335.71875 1077.15625 335.71875 "/></g><path style=" stroke:none;fill-rule:nonzero;fill:#ffcc00;fill-opacity:1;" d="M 1083.90625 319.421875 C 1083.652344 319.421875 1083.394531 319.324219 1083.199219 319.128906 L 1075.863281 311.792969 C 1075.472656 311.398438 1075.472656 310.765625 1075.863281 310.375 C 1076.253906 309.980469 1076.890625 309.980469 1077.28125 310.375 L 1084.617188 317.710938 C 1085.007812 318.101562 1085.007812 318.734375 1084.617188 319.128906 C 1084.421875 319.324219 1084.164062 319.421875 1083.90625 319.421875 "/><g style="fill:#ffffff;fill-opacity:1;"><g transform="translate(754.475994, 441.123963)"><path style="stroke:none" d="M 27.4375 0.90625 C 23.1875 0.90625 19.375 0.179688 16 -1.265625 C 12.625 -2.710938 9.957031 -4.734375 8 -7.328125 C 6.039062 -9.929688 4.960938 -12.921875 4.765625 -16.296875 L 14.28125 -16.296875 C 14.539062 -13.523438 15.835938 -11.265625 18.171875 -9.515625 C 20.503906 -7.765625 23.554688 -6.890625 27.328125 -6.890625 C 30.835938 -6.890625 33.601562 -7.664062 35.625 -9.21875 C 37.65625 -10.769531 38.671875 -12.722656 38.671875 -15.078125 C 38.671875 -17.515625 37.585938 -19.320312 35.421875 -20.5 C 33.265625 -21.675781 29.925781 -22.84375 25.40625 -24 C 21.289062 -25.070312 17.929688 -26.164062 15.328125 -27.28125 C 12.734375 -28.394531 10.507812 -30.046875 8.65625 -32.234375 C 6.800781 -34.429688 5.875 -37.320312 5.875 -40.90625 C 5.875 -43.738281 6.71875 -46.332031 8.40625 -48.6875 C 10.09375 -51.050781 12.488281 -52.925781 15.59375 -54.3125 C 18.695312 -55.695312 22.238281 -56.390625 26.21875 -56.390625 C 32.363281 -56.390625 37.320312 -54.835938 41.09375 -51.734375 C 44.875 -48.628906 46.898438 -44.375 47.171875 -38.96875 L 37.96875 -38.96875 C 37.757812 -41.875 36.59375 -44.203125 34.46875 -45.953125 C 32.34375 -47.710938 29.492188 -48.59375 25.921875 -48.59375 C 22.609375 -48.59375 19.972656 -47.882812 18.015625 -46.46875 C 16.054688 -45.050781 15.078125 -43.195312 15.078125 -40.90625 C 15.078125 -39.082031 15.664062 -37.578125 16.84375 -36.390625 C 18.03125 -35.210938 19.519531 -34.269531 21.3125 -33.5625 C 23.101562 -32.851562 25.582031 -32.0625 28.75 -31.1875 C 32.726562 -30.101562 35.96875 -29.035156 38.46875 -27.984375 C 40.96875 -26.941406 43.109375 -25.375 44.890625 -23.28125 C 46.679688 -21.1875 47.613281 -18.453125 47.6875 -15.078125 C 47.6875 -12.046875 46.84375 -9.3125 45.15625 -6.875 C 43.46875 -4.445312 41.085938 -2.539062 38.015625 -1.15625 C 34.941406 0.21875 31.414062 0.90625 27.4375 0.90625 Z M 27.4375 0.90625 "/></g></g><g style="fill:#ffffff;fill-opacity:1;"><g transform="translate(813.490329, 441.123963)"><path style="stroke:none" d="M 17 -45.25 C 18.820312 -48.425781 21.539062 -51.078125 25.15625 -53.203125 C 28.769531 -55.328125 32.972656 -56.390625 37.765625 -56.390625 C 42.691406 -56.390625 47.160156 -55.207031 51.171875 -52.84375 C 55.191406 -50.476562 58.347656 -47.148438 60.640625 -42.859375 C 62.929688 -38.578125 64.078125 -33.601562 64.078125 -27.9375 C 64.078125 -22.332031 62.929688 -17.335938 60.640625 -12.953125 C 58.347656 -8.566406 55.191406 -5.160156 51.171875 -2.734375 C 47.160156 -0.304688 42.691406 0.90625 37.765625 0.90625 C 33.035156 0.90625 28.863281 -0.15625 25.25 -2.28125 C 21.644531 -4.40625 18.894531 -7.050781 17 -10.21875 L 17 26.328125 L 7.796875 26.328125 L 7.796875 -55.46875 L 17 -55.46875 Z M 54.671875 -27.9375 C 54.671875 -32.125 53.828125 -35.769531 52.140625 -38.875 C 50.453125 -41.976562 48.171875 -44.335938 45.296875 -45.953125 C 42.429688 -47.578125 39.28125 -48.390625 35.84375 -48.390625 C 32.46875 -48.390625 29.34375 -47.5625 26.46875 -45.90625 C 23.601562 -44.25 21.304688 -41.851562 19.578125 -38.71875 C 17.859375 -35.582031 17 -31.957031 17 -27.84375 C 17 -23.65625 17.859375 -19.988281 19.578125 -16.84375 C 21.304688 -13.707031 23.601562 -11.3125 26.46875 -9.65625 C 29.34375 -8.007812 32.46875 -7.1875 35.84375 -7.1875 C 39.28125 -7.1875 42.429688 -8.007812 45.296875 -9.65625 C 48.171875 -11.3125 50.453125 -13.707031 52.140625 -16.84375 C 53.828125 -19.988281 54.671875 -23.6875 54.671875 -27.9375 Z M 54.671875 -27.9375 "/></g></g><g style="fill:#ffffff;fill-opacity:1;"><g transform="translate(888.092981, 441.123963)"><path style="stroke:none" d="M 4.359375 -27.9375 C 4.359375 -33.601562 5.503906 -38.578125 7.796875 -42.859375 C 10.085938 -47.148438 13.238281 -50.476562 17.25 -52.84375 C 21.269531 -55.207031 25.742188 -56.390625 30.671875 -56.390625 C 35.535156 -56.390625 39.753906 -55.34375 43.328125 -53.25 C 46.898438 -51.15625 49.566406 -48.523438 51.328125 -45.359375 L 51.328125 -55.46875 L 60.640625 -55.46875 L 60.640625 0 L 51.328125 0 L 51.328125 -10.328125 C 49.503906 -7.085938 46.785156 -4.40625 43.171875 -2.28125 C 39.566406 -0.15625 35.367188 0.90625 30.578125 0.90625 C 25.648438 0.90625 21.191406 -0.304688 17.203125 -2.734375 C 13.222656 -5.160156 10.085938 -8.566406 7.796875 -12.953125 C 5.503906 -17.335938 4.359375 -22.332031 4.359375 -27.9375 Z M 51.328125 -27.84375 C 51.328125 -32.019531 50.484375 -35.660156 48.796875 -38.765625 C 47.109375 -41.867188 44.828125 -44.25 41.953125 -45.90625 C 39.085938 -47.5625 35.9375 -48.390625 32.5 -48.390625 C 29.050781 -48.390625 25.910156 -47.578125 23.078125 -45.953125 C 20.242188 -44.335938 17.984375 -41.976562 16.296875 -38.875 C 14.609375 -35.769531 13.765625 -32.125 13.765625 -27.9375 C 13.765625 -23.6875 14.609375 -19.988281 16.296875 -16.84375 C 17.984375 -13.707031 20.242188 -11.3125 23.078125 -9.65625 C 25.910156 -8.007812 29.050781 -7.1875 32.5 -7.1875 C 35.9375 -7.1875 39.085938 -8.007812 41.953125 -9.65625 C 44.828125 -11.3125 47.109375 -13.707031 48.796875 -16.84375 C 50.484375 -19.988281 51.328125 -23.65625 51.328125 -27.84375 Z M 51.328125 -27.84375 "/></g></g><g style="fill:#ffffff;fill-opacity:1;"><g transform="translate(962.695633, 441.123963)"><path style="stroke:none" d="M 17 -46.46875 C 18.625 -49.632812 20.9375 -52.09375 23.9375 -53.84375 C 26.945312 -55.601562 30.609375 -56.484375 34.921875 -56.484375 L 34.921875 -46.96875 L 32.5 -46.96875 C 22.164062 -46.96875 17 -41.367188 17 -30.171875 L 17 0 L 7.796875 0 L 7.796875 -55.46875 L 17 -55.46875 Z M 17 -46.46875 "/></g></g><g style="fill:#ffffff;fill-opacity:1;"><g transform="translate(1006.62778, 441.123963)"><path style="stroke:none" d="M 38.765625 0 L 17 -24.5 L 17 0 L 7.796875 0 L 7.796875 -74.90625 L 17 -74.90625 L 17 -30.875 L 38.375 -55.46875 L 51.21875 -55.46875 L 25.109375 -27.84375 L 51.328125 0 Z M 38.765625 0 "/></g></g><g style="fill:#ffffff;fill-opacity:1;"><g transform="translate(378.482565, 499.565296)"><path style="stroke:none" d="M 4.125 -2 L 9.234375 -2 L 9.234375 0 L 1.640625 0 L 1.640625 -15.15625 L 4.125 -15.15625 Z M 4.125 -2 "/></g></g><g style="fill:#ffffff;fill-opacity:1;"><g transform="translate(389.138921, 499.565296)"><path style="stroke:none" d="M 2.90625 -13.59375 C 2.445312 -13.59375 2.066406 -13.742188 1.765625 -14.046875 C 1.460938 -14.359375 1.3125 -14.738281 1.3125 -15.1875 C 1.3125 -15.644531 1.460938 -16.023438 1.765625 -16.328125 C 2.066406 -16.628906 2.445312 -16.78125 2.90625 -16.78125 C 3.332031 -16.78125 3.695312 -16.628906 4 -16.328125 C 4.3125 -16.023438 4.46875 -15.644531 4.46875 -15.1875 C 4.46875 -14.738281 4.3125 -14.359375 4 -14.046875 C 3.695312 -13.742188 3.332031 -13.59375 2.90625 -13.59375 Z M 4.125 -12.015625 L 4.125 0 L 1.640625 0 L 1.640625 -12.015625 Z M 4.125 -12.015625 "/></g></g><g style="fill:#ffffff;fill-opacity:1;"><g transform="translate(395.872703, 499.565296)"><path style="stroke:none" d="M 6.46875 -12.203125 C 7.40625 -12.203125 8.234375 -12.015625 8.953125 -11.640625 C 9.671875 -11.273438 10.234375 -10.816406 10.640625 -10.265625 L 10.640625 -12.015625 L 13.140625 -12.015625 L 13.140625 0.203125 C 13.140625 1.304688 12.90625 2.289062 12.4375 3.15625 C 11.976562 4.019531 11.304688 4.695312 10.421875 5.1875 C 9.546875 5.675781 8.5 5.921875 7.28125 5.921875 C 5.65625 5.921875 4.300781 5.539062 3.21875 4.78125 C 2.144531 4.019531 1.535156 2.984375 1.390625 1.671875 L 3.859375 1.671875 C 4.046875 2.296875 4.445312 2.800781 5.0625 3.1875 C 5.6875 3.570312 6.425781 3.765625 7.28125 3.765625 C 8.28125 3.765625 9.085938 3.457031 9.703125 2.84375 C 10.328125 2.238281 10.640625 1.359375 10.640625 0.203125 L 10.640625 -1.8125 C 10.210938 -1.238281 9.640625 -0.757812 8.921875 -0.375 C 8.203125 0.0078125 7.382812 0.203125 6.46875 0.203125 C 5.425781 0.203125 4.472656 -0.0625 3.609375 -0.59375 C 2.742188 -1.125 2.0625 -1.863281 1.5625 -2.8125 C 1.0625 -3.769531 0.8125 -4.851562 0.8125 -6.0625 C 0.8125 -7.269531 1.0625 -8.335938 1.5625 -9.265625 C 2.0625 -10.191406 2.742188 -10.910156 3.609375 -11.421875 C 4.472656 -11.941406 5.425781 -12.203125 6.46875 -12.203125 Z M 10.640625 -6.015625 C 10.640625 -6.847656 10.46875 -7.566406 10.125 -8.171875 C 9.78125 -8.785156 9.332031 -9.25 8.78125 -9.5625 C 8.226562 -9.882812 7.632812 -10.046875 7 -10.046875 C 6.351562 -10.046875 5.753906 -9.890625 5.203125 -9.578125 C 4.648438 -9.265625 4.203125 -8.804688 3.859375 -8.203125 C 3.523438 -7.597656 3.359375 -6.882812 3.359375 -6.0625 C 3.359375 -5.226562 3.523438 -4.5 3.859375 -3.875 C 4.203125 -3.25 4.65625 -2.773438 5.21875 -2.453125 C 5.78125 -2.128906 6.375 -1.96875 7 -1.96875 C 7.632812 -1.96875 8.226562 -2.125 8.78125 -2.4375 C 9.332031 -2.757812 9.78125 -3.226562 10.125 -3.84375 C 10.46875 -4.46875 10.640625 -5.191406 10.640625 -6.015625 Z M 10.640625 -6.015625 "/></g></g><g style="fill:#ffffff;fill-opacity:1;"><g transform="translate(411.628449, 499.565296)"><path style="stroke:none" d="M 7.84375 -12.203125 C 8.757812 -12.203125 9.578125 -12.003906 10.296875 -11.609375 C 11.015625 -11.222656 11.582031 -10.644531 12 -9.875 C 12.414062 -9.101562 12.625 -8.171875 12.625 -7.078125 L 12.625 0 L 10.15625 0 L 10.15625 -6.71875 C 10.15625 -7.789062 9.882812 -8.613281 9.34375 -9.1875 C 8.8125 -9.757812 8.082031 -10.046875 7.15625 -10.046875 C 6.21875 -10.046875 5.476562 -9.757812 4.9375 -9.1875 C 4.394531 -8.613281 4.125 -7.789062 4.125 -6.71875 L 4.125 0 L 1.640625 0 L 1.640625 -16.125 L 4.125 -16.125 L 4.125 -10.609375 C 4.539062 -11.117188 5.070312 -11.507812 5.71875 -11.78125 C 6.363281 -12.0625 7.070312 -12.203125 7.84375 -12.203125 Z M 7.84375 -12.203125 "/></g></g><g style="fill:#ffffff;fill-opacity:1;"><g transform="translate(426.752214, 499.565296)"><path style="stroke:none" d="M 4.53125 -9.984375 L 4.53125 -3.328125 C 4.53125 -2.878906 4.632812 -2.554688 4.84375 -2.359375 C 5.0625 -2.171875 5.421875 -2.078125 5.921875 -2.078125 L 7.453125 -2.078125 L 7.453125 0 L 5.5 0 C 4.375 0 3.515625 -0.257812 2.921875 -0.78125 C 2.328125 -1.300781 2.03125 -2.148438 2.03125 -3.328125 L 2.03125 -9.984375 L 0.609375 -9.984375 L 0.609375 -12.015625 L 2.03125 -12.015625 L 2.03125 -15 L 4.53125 -15 L 4.53125 -12.015625 L 7.453125 -12.015625 L 7.453125 -9.984375 Z M 4.53125 -9.984375 "/></g></g><g style="fill:#ffffff;fill-opacity:1;"><g transform="translate(435.839546, 499.565296)"><path style="stroke:none" d="M 2.90625 -13.59375 C 2.445312 -13.59375 2.066406 -13.742188 1.765625 -14.046875 C 1.460938 -14.359375 1.3125 -14.738281 1.3125 -15.1875 C 1.3125 -15.644531 1.460938 -16.023438 1.765625 -16.328125 C 2.066406 -16.628906 2.445312 -16.78125 2.90625 -16.78125 C 3.332031 -16.78125 3.695312 -16.628906 4 -16.328125 C 4.3125 -16.023438 4.46875 -15.644531 4.46875 -15.1875 C 4.46875 -14.738281 4.3125 -14.359375 4 -14.046875 C 3.695312 -13.742188 3.332031 -13.59375 2.90625 -13.59375 Z M 4.125 -12.015625 L 4.125 0 L 1.640625 0 L 1.640625 -12.015625 Z M 4.125 -12.015625 "/></g></g><g style="fill:#ffffff;fill-opacity:1;"><g transform="translate(442.573328, 499.565296)"><path style="stroke:none" d="M 7.6875 -12.203125 C 8.632812 -12.203125 9.484375 -12.003906 10.234375 -11.609375 C 10.984375 -11.222656 11.566406 -10.644531 11.984375 -9.875 C 12.410156 -9.101562 12.625 -8.171875 12.625 -7.078125 L 12.625 0 L 10.15625 0 L 10.15625 -6.71875 C 10.15625 -7.789062 9.882812 -8.613281 9.34375 -9.1875 C 8.8125 -9.757812 8.082031 -10.046875 7.15625 -10.046875 C 6.21875 -10.046875 5.476562 -9.757812 4.9375 -9.1875 C 4.394531 -8.613281 4.125 -7.789062 4.125 -6.71875 L 4.125 0 L 1.640625 0 L 1.640625 -12.015625 L 4.125 -12.015625 L 4.125 -10.640625 C 4.53125 -11.128906 5.046875 -11.507812 5.671875 -11.78125 C 6.304688 -12.0625 6.976562 -12.203125 7.6875 -12.203125 Z M 7.6875 -12.203125 "/></g></g><g style="fill:#ffffff;fill-opacity:1;"><g transform="translate(457.697092, 499.565296)"><path style="stroke:none" d="M 6.46875 -12.203125 C 7.40625 -12.203125 8.234375 -12.015625 8.953125 -11.640625 C 9.671875 -11.273438 10.234375 -10.816406 10.640625 -10.265625 L 10.640625 -12.015625 L 13.140625 -12.015625 L 13.140625 0.203125 C 13.140625 1.304688 12.90625 2.289062 12.4375 3.15625 C 11.976562 4.019531 11.304688 4.695312 10.421875 5.1875 C 9.546875 5.675781 8.5 5.921875 7.28125 5.921875 C 5.65625 5.921875 4.300781 5.539062 3.21875 4.78125 C 2.144531 4.019531 1.535156 2.984375 1.390625 1.671875 L 3.859375 1.671875 C 4.046875 2.296875 4.445312 2.800781 5.0625 3.1875 C 5.6875 3.570312 6.425781 3.765625 7.28125 3.765625 C 8.28125 3.765625 9.085938 3.457031 9.703125 2.84375 C 10.328125 2.238281 10.640625 1.359375 10.640625 0.203125 L 10.640625 -1.8125 C 10.210938 -1.238281 9.640625 -0.757812 8.921875 -0.375 C 8.203125 0.0078125 7.382812 0.203125 6.46875 0.203125 C 5.425781 0.203125 4.472656 -0.0625 3.609375 -0.59375 C 2.742188 -1.125 2.0625 -1.863281 1.5625 -2.8125 C 1.0625 -3.769531 0.8125 -4.851562 0.8125 -6.0625 C 0.8125 -7.269531 1.0625 -8.335938 1.5625 -9.265625 C 2.0625 -10.191406 2.742188 -10.910156 3.609375 -11.421875 C 4.472656 -11.941406 5.425781 -12.203125 6.46875 -12.203125 Z M 10.640625 -6.015625 C 10.640625 -6.847656 10.46875 -7.566406 10.125 -8.171875 C 9.78125 -8.785156 9.332031 -9.25 8.78125 -9.5625 C 8.226562 -9.882812 7.632812 -10.046875 7 -10.046875 C 6.351562 -10.046875 5.753906 -9.890625 5.203125 -9.578125 C 4.648438 -9.265625 4.203125 -8.804688 3.859375 -8.203125 C 3.523438 -7.597656 3.359375 -6.882812 3.359375 -6.0625 C 3.359375 -5.226562 3.523438 -4.5 3.859375 -3.875 C 4.203125 -3.25 4.65625 -2.773438 5.21875 -2.453125 C 5.78125 -2.128906 6.375 -1.96875 7 -1.96875 C 7.632812 -1.96875 8.226562 -2.125 8.78125 -2.4375 C 9.332031 -2.757812 9.78125 -3.226562 10.125 -3.84375 C 10.46875 -4.46875 10.640625 -5.191406 10.640625 -6.015625 Z M 10.640625 -6.015625 "/></g></g><g style="fill:#ffffff;fill-opacity:1;"><g transform="translate(473.452838, 499.565296)"><path style="stroke:none" d=""/></g></g><g style="fill:#ffffff;fill-opacity:1;"><g transform="translate(480.099445, 499.565296)"><path style="stroke:none" d="M 12.515625 -12.015625 L 12.515625 0 L 10.03125 0 L 10.03125 -1.421875 C 9.632812 -0.921875 9.117188 -0.53125 8.484375 -0.25 C 7.859375 0.03125 7.1875 0.171875 6.46875 0.171875 C 5.53125 0.171875 4.6875 -0.0195312 3.9375 -0.40625 C 3.1875 -0.800781 2.597656 -1.382812 2.171875 -2.15625 C 1.742188 -2.925781 1.53125 -3.859375 1.53125 -4.953125 L 1.53125 -12.015625 L 3.984375 -12.015625 L 3.984375 -5.3125 C 3.984375 -4.238281 4.253906 -3.414062 4.796875 -2.84375 C 5.335938 -2.269531 6.070312 -1.984375 7 -1.984375 C 7.925781 -1.984375 8.660156 -2.269531 9.203125 -2.84375 C 9.753906 -3.414062 10.03125 -4.238281 10.03125 -5.3125 L 10.03125 -12.015625 Z M 12.515625 -12.015625 "/></g></g><g style="fill:#ffffff;fill-opacity:1;"><g transform="translate(495.223209, 499.565296)"><path style="stroke:none" d="M 4.125 -10.25 C 4.539062 -10.800781 5.113281 -11.265625 5.84375 -11.640625 C 6.570312 -12.015625 7.390625 -12.203125 8.296875 -12.203125 C 9.347656 -12.203125 10.304688 -11.941406 11.171875 -11.421875 C 12.035156 -10.910156 12.710938 -10.191406 13.203125 -9.265625 C 13.703125 -8.335938 13.953125 -7.269531 13.953125 -6.0625 C 13.953125 -4.851562 13.703125 -3.769531 13.203125 -2.8125 C 12.710938 -1.863281 12.035156 -1.125 11.171875 -0.59375 C 10.304688 -0.0625 9.347656 0.203125 8.296875 0.203125 C 7.390625 0.203125 6.578125 0.015625 5.859375 -0.359375 C 5.148438 -0.734375 4.570312 -1.195312 4.125 -1.75 L 4.125 5.703125 L 1.640625 5.703125 L 1.640625 -12.015625 L 4.125 -12.015625 Z M 11.421875 -6.0625 C 11.421875 -6.882812 11.25 -7.597656 10.90625 -8.203125 C 10.5625 -8.804688 10.109375 -9.265625 9.546875 -9.578125 C 8.992188 -9.890625 8.398438 -10.046875 7.765625 -10.046875 C 7.140625 -10.046875 6.546875 -9.882812 5.984375 -9.5625 C 5.421875 -9.25 4.96875 -8.785156 4.625 -8.171875 C 4.289062 -7.566406 4.125 -6.847656 4.125 -6.015625 C 4.125 -5.191406 4.289062 -4.46875 4.625 -3.84375 C 4.96875 -3.226562 5.421875 -2.757812 5.984375 -2.4375 C 6.546875 -2.125 7.140625 -1.96875 7.765625 -1.96875 C 8.398438 -1.96875 8.992188 -2.128906 9.546875 -2.453125 C 10.109375 -2.773438 10.5625 -3.25 10.90625 -3.875 C 11.25 -4.5 11.421875 -5.226562 11.421875 -6.0625 Z M 11.421875 -6.0625 "/></g></g><g style="fill:#ffffff;fill-opacity:1;"><g transform="translate(510.978955, 499.565296)"><path style="stroke:none" d=""/></g></g><g style="fill:#ffffff;fill-opacity:1;"><g transform="translate(517.625562, 499.565296)"><path style="stroke:none" d="M 4.53125 -9.984375 L 4.53125 -3.328125 C 4.53125 -2.878906 4.632812 -2.554688 4.84375 -2.359375 C 5.0625 -2.171875 5.421875 -2.078125 5.921875 -2.078125 L 7.453125 -2.078125 L 7.453125 0 L 5.5 0 C 4.375 0 3.515625 -0.257812 2.921875 -0.78125 C 2.328125 -1.300781 2.03125 -2.148438 2.03125 -3.328125 L 2.03125 -9.984375 L 0.609375 -9.984375 L 0.609375 -12.015625 L 2.03125 -12.015625 L 2.03125 -15 L 4.53125 -15 L 4.53125 -12.015625 L 7.453125 -12.015625 L 7.453125 -9.984375 Z M 4.53125 -9.984375 "/></g></g><g style="fill:#ffffff;fill-opacity:1;"><g transform="translate(526.712894, 499.565296)"><path style="stroke:none" d="M 7.84375 -12.203125 C 8.757812 -12.203125 9.578125 -12.003906 10.296875 -11.609375 C 11.015625 -11.222656 11.582031 -10.644531 12 -9.875 C 12.414062 -9.101562 12.625 -8.171875 12.625 -7.078125 L 12.625 0 L 10.15625 0 L 10.15625 -6.71875 C 10.15625 -7.789062 9.882812 -8.613281 9.34375 -9.1875 C 8.8125 -9.757812 8.082031 -10.046875 7.15625 -10.046875 C 6.21875 -10.046875 5.476562 -9.757812 4.9375 -9.1875 C 4.394531 -8.613281 4.125 -7.789062 4.125 -6.71875 L 4.125 0 L 1.640625 0 L 1.640625 -16.125 L 4.125 -16.125 L 4.125 -10.609375 C 4.539062 -11.117188 5.070312 -11.507812 5.71875 -11.78125 C 6.363281 -12.0625 7.070312 -12.203125 7.84375 -12.203125 Z M 7.84375 -12.203125 "/></g></g><g style="fill:#ffffff;fill-opacity:1;"><g transform="translate(541.836658, 499.565296)"><path style="stroke:none" d="M 12.640625 -6.296875 C 12.640625 -5.847656 12.613281 -5.441406 12.5625 -5.078125 L 3.375 -5.078125 C 3.445312 -4.117188 3.800781 -3.347656 4.4375 -2.765625 C 5.082031 -2.179688 5.867188 -1.890625 6.796875 -1.890625 C 8.140625 -1.890625 9.085938 -2.453125 9.640625 -3.578125 L 12.3125 -3.578125 C 11.945312 -2.472656 11.289062 -1.566406 10.34375 -0.859375 C 9.394531 -0.148438 8.210938 0.203125 6.796875 0.203125 C 5.648438 0.203125 4.625 -0.0507812 3.71875 -0.5625 C 2.8125 -1.082031 2.097656 -1.8125 1.578125 -2.75 C 1.066406 -3.6875 0.8125 -4.773438 0.8125 -6.015625 C 0.8125 -7.253906 1.0625 -8.34375 1.5625 -9.28125 C 2.0625 -10.21875 2.765625 -10.9375 3.671875 -11.4375 C 4.578125 -11.945312 5.617188 -12.203125 6.796875 -12.203125 C 7.929688 -12.203125 8.941406 -11.953125 9.828125 -11.453125 C 10.710938 -10.960938 11.398438 -10.269531 11.890625 -9.375 C 12.390625 -8.488281 12.640625 -7.460938 12.640625 -6.296875 Z M 10.046875 -7.078125 C 10.035156 -7.992188 9.707031 -8.726562 9.0625 -9.28125 C 8.425781 -9.832031 7.632812 -10.109375 6.6875 -10.109375 C 5.832031 -10.109375 5.097656 -9.835938 4.484375 -9.296875 C 3.878906 -8.753906 3.519531 -8.015625 3.40625 -7.078125 Z M 10.046875 -7.078125 "/></g></g><g style="fill:#ffffff;fill-opacity:1;"><g transform="translate(556.263072, 499.565296)"><path style="stroke:none" d=""/></g></g><g style="fill:#ffffff;fill-opacity:1;"><g transform="translate(562.909678, 499.565296)"><path style="stroke:none" d="M 17.765625 -12.015625 L 14.03125 0 L 11.421875 0 L 9 -8.875 L 6.578125 0 L 3.96875 0 L 0.21875 -12.015625 L 2.75 -12.015625 L 5.25 -2.359375 L 7.796875 -12.015625 L 10.390625 -12.015625 L 12.84375 -2.390625 L 15.328125 -12.015625 Z M 17.765625 -12.015625 "/></g></g><g style="fill:#ffffff;fill-opacity:1;"><g transform="translate(581.868868, 499.565296)"><path style="stroke:none" d="M 0.8125 -6.0625 C 0.8125 -7.269531 1.0625 -8.335938 1.5625 -9.265625 C 2.0625 -10.191406 2.742188 -10.910156 3.609375 -11.421875 C 4.472656 -11.941406 5.425781 -12.203125 6.46875 -12.203125 C 7.414062 -12.203125 8.238281 -12.015625 8.9375 -11.640625 C 9.644531 -11.273438 10.210938 -10.816406 10.640625 -10.265625 L 10.640625 -12.015625 L 13.140625 -12.015625 L 13.140625 0 L 10.640625 0 L 10.640625 -1.78125 C 10.210938 -1.21875 9.632812 -0.742188 8.90625 -0.359375 C 8.1875 0.015625 7.363281 0.203125 6.4375 0.203125 C 5.394531 0.203125 4.445312 -0.0625 3.59375 -0.59375 C 2.738281 -1.125 2.0625 -1.863281 1.5625 -2.8125 C 1.0625 -3.769531 0.8125 -4.851562 0.8125 -6.0625 Z M 10.640625 -6.015625 C 10.640625 -6.847656 10.46875 -7.566406 10.125 -8.171875 C 9.78125 -8.785156 9.332031 -9.25 8.78125 -9.5625 C 8.226562 -9.882812 7.632812 -10.046875 7 -10.046875 C 6.351562 -10.046875 5.753906 -9.890625 5.203125 -9.578125 C 4.648438 -9.265625 4.203125 -8.804688 3.859375 -8.203125 C 3.523438 -7.597656 3.359375 -6.882812 3.359375 -6.0625 C 3.359375 -5.226562 3.523438 -4.5 3.859375 -3.875 C 4.203125 -3.25 4.65625 -2.773438 5.21875 -2.453125 C 5.78125 -2.128906 6.375 -1.96875 7 -1.96875 C 7.632812 -1.96875 8.226562 -2.125 8.78125 -2.4375 C 9.332031 -2.757812 9.78125 -3.226562 10.125 -3.84375 C 10.46875 -4.46875 10.640625 -5.191406 10.640625 -6.015625 Z M 10.640625 -6.015625 "/></g></g><g style="fill:#ffffff;fill-opacity:1;"><g transform="translate(597.624615, 499.565296)"><path style="stroke:none" d="M 12.453125 -12.015625 L 5.078125 5.640625 L 2.5 5.640625 L 4.953125 -0.203125 L 0.21875 -12.015625 L 2.984375 -12.015625 L 6.359375 -2.859375 L 9.875 -12.015625 Z M 12.453125 -12.015625 "/></g></g><g style="fill:#ffffff;fill-opacity:1;"><g transform="translate(611.288311, 499.565296)"><path style="stroke:none" d=""/></g></g><g style="fill:#ffffff;fill-opacity:1;"><g transform="translate(617.934917, 499.565296)"><path style="stroke:none" d="M 4.53125 -9.984375 L 4.53125 -3.328125 C 4.53125 -2.878906 4.632812 -2.554688 4.84375 -2.359375 C 5.0625 -2.171875 5.421875 -2.078125 5.921875 -2.078125 L 7.453125 -2.078125 L 7.453125 0 L 5.5 0 C 4.375 0 3.515625 -0.257812 2.921875 -0.78125 C 2.328125 -1.300781 2.03125 -2.148438 2.03125 -3.328125 L 2.03125 -9.984375 L 0.609375 -9.984375 L 0.609375 -12.015625 L 2.03125 -12.015625 L 2.03125 -15 L 4.53125 -15 L 4.53125 -12.015625 L 7.453125 -12.015625 L 7.453125 -9.984375 Z M 4.53125 -9.984375 "/></g></g><g style="fill:#ffffff;fill-opacity:1;"><g transform="translate(627.022249, 499.565296)"><path style="stroke:none" d="M 6.84375 0.203125 C 5.707031 0.203125 4.679688 -0.0507812 3.765625 -0.5625 C 2.847656 -1.082031 2.128906 -1.8125 1.609375 -2.75 C 1.085938 -3.6875 0.828125 -4.773438 0.828125 -6.015625 C 0.828125 -7.234375 1.09375 -8.316406 1.625 -9.265625 C 2.164062 -10.210938 2.898438 -10.9375 3.828125 -11.4375 C 4.765625 -11.945312 5.804688 -12.203125 6.953125 -12.203125 C 8.097656 -12.203125 9.132812 -11.945312 10.0625 -11.4375 C 11 -10.9375 11.734375 -10.210938 12.265625 -9.265625 C 12.804688 -8.316406 13.078125 -7.234375 13.078125 -6.015625 C 13.078125 -4.796875 12.800781 -3.710938 12.25 -2.765625 C 11.695312 -1.816406 10.941406 -1.082031 9.984375 -0.5625 C 9.035156 -0.0507812 7.988281 0.203125 6.84375 0.203125 Z M 6.84375 -1.96875 C 7.476562 -1.96875 8.078125 -2.117188 8.640625 -2.421875 C 9.203125 -2.722656 9.65625 -3.175781 10 -3.78125 C 10.351562 -4.394531 10.53125 -5.140625 10.53125 -6.015625 C 10.53125 -6.890625 10.363281 -7.628906 10.03125 -8.234375 C 9.695312 -8.835938 9.253906 -9.289062 8.703125 -9.59375 C 8.148438 -9.894531 7.550781 -10.046875 6.90625 -10.046875 C 6.269531 -10.046875 5.675781 -9.894531 5.125 -9.59375 C 4.582031 -9.289062 4.148438 -8.835938 3.828125 -8.234375 C 3.515625 -7.628906 3.359375 -6.890625 3.359375 -6.015625 C 3.359375 -4.722656 3.6875 -3.722656 4.34375 -3.015625 C 5.007812 -2.316406 5.84375 -1.96875 6.84375 -1.96875 Z M 6.84375 -1.96875 "/></g></g><g style="fill:#ffffff;fill-opacity:1;"><g transform="translate(641.906294, 499.565296)"><path style="stroke:none" d=""/></g></g><g style="fill:#ffffff;fill-opacity:1;"><g transform="translate(648.552901, 499.565296)"><path style="stroke:none" d="M 12.640625 -6.296875 C 12.640625 -5.847656 12.613281 -5.441406 12.5625 -5.078125 L 3.375 -5.078125 C 3.445312 -4.117188 3.800781 -3.347656 4.4375 -2.765625 C 5.082031 -2.179688 5.867188 -1.890625 6.796875 -1.890625 C 8.140625 -1.890625 9.085938 -2.453125 9.640625 -3.578125 L 12.3125 -3.578125 C 11.945312 -2.472656 11.289062 -1.566406 10.34375 -0.859375 C 9.394531 -0.148438 8.210938 0.203125 6.796875 0.203125 C 5.648438 0.203125 4.625 -0.0507812 3.71875 -0.5625 C 2.8125 -1.082031 2.097656 -1.8125 1.578125 -2.75 C 1.066406 -3.6875 0.8125 -4.773438 0.8125 -6.015625 C 0.8125 -7.253906 1.0625 -8.34375 1.5625 -9.28125 C 2.0625 -10.21875 2.765625 -10.9375 3.671875 -11.4375 C 4.578125 -11.945312 5.617188 -12.203125 6.796875 -12.203125 C 7.929688 -12.203125 8.941406 -11.953125 9.828125 -11.453125 C 10.710938 -10.960938 11.398438 -10.269531 11.890625 -9.375 C 12.390625 -8.488281 12.640625 -7.460938 12.640625 -6.296875 Z M 10.046875 -7.078125 C 10.035156 -7.992188 9.707031 -8.726562 9.0625 -9.28125 C 8.425781 -9.832031 7.632812 -10.109375 6.6875 -10.109375 C 5.832031 -10.109375 5.097656 -9.835938 4.484375 -9.296875 C 3.878906 -8.753906 3.519531 -8.015625 3.40625 -7.078125 Z M 10.046875 -7.078125 "/></g></g><g style="fill:#ffffff;fill-opacity:1;"><g transform="translate(662.979315, 499.565296)"><path style="stroke:none" d="M 0.8125 -6.0625 C 0.8125 -7.269531 1.0625 -8.335938 1.5625 -9.265625 C 2.0625 -10.191406 2.742188 -10.910156 3.609375 -11.421875 C 4.472656 -11.941406 5.4375 -12.203125 6.5 -12.203125 C 7.28125 -12.203125 8.050781 -12.03125 8.8125 -11.6875 C 9.582031 -11.351562 10.191406 -10.898438 10.640625 -10.328125 L 10.640625 -16.125 L 13.140625 -16.125 L 13.140625 0 L 10.640625 0 L 10.640625 -1.8125 C 10.234375 -1.226562 9.671875 -0.742188 8.953125 -0.359375 C 8.234375 0.015625 7.40625 0.203125 6.46875 0.203125 C 5.425781 0.203125 4.472656 -0.0625 3.609375 -0.59375 C 2.742188 -1.125 2.0625 -1.863281 1.5625 -2.8125 C 1.0625 -3.769531 0.8125 -4.851562 0.8125 -6.0625 Z M 10.640625 -6.015625 C 10.640625 -6.847656 10.46875 -7.566406 10.125 -8.171875 C 9.78125 -8.785156 9.332031 -9.25 8.78125 -9.5625 C 8.226562 -9.882812 7.632812 -10.046875 7 -10.046875 C 6.351562 -10.046875 5.753906 -9.890625 5.203125 -9.578125 C 4.648438 -9.265625 4.203125 -8.804688 3.859375 -8.203125 C 3.523438 -7.597656 3.359375 -6.882812 3.359375 -6.0625 C 3.359375 -5.226562 3.523438 -4.5 3.859375 -3.875 C 4.203125 -3.25 4.65625 -2.773438 5.21875 -2.453125 C 5.78125 -2.128906 6.375 -1.96875 7 -1.96875 C 7.632812 -1.96875 8.226562 -2.125 8.78125 -2.4375 C 9.332031 -2.757812 9.78125 -3.226562 10.125 -3.84375 C 10.46875 -4.46875 10.640625 -5.191406 10.640625 -6.015625 Z M 10.640625 -6.015625 "/></g></g><g style="fill:#ffffff;fill-opacity:1;"><g transform="translate(678.735061, 499.565296)"><path style="stroke:none" d="M 12.515625 -12.015625 L 12.515625 0 L 10.03125 0 L 10.03125 -1.421875 C 9.632812 -0.921875 9.117188 -0.53125 8.484375 -0.25 C 7.859375 0.03125 7.1875 0.171875 6.46875 0.171875 C 5.53125 0.171875 4.6875 -0.0195312 3.9375 -0.40625 C 3.1875 -0.800781 2.597656 -1.382812 2.171875 -2.15625 C 1.742188 -2.925781 1.53125 -3.859375 1.53125 -4.953125 L 1.53125 -12.015625 L 3.984375 -12.015625 L 3.984375 -5.3125 C 3.984375 -4.238281 4.253906 -3.414062 4.796875 -2.84375 C 5.335938 -2.269531 6.070312 -1.984375 7 -1.984375 C 7.925781 -1.984375 8.660156 -2.269531 9.203125 -2.84375 C 9.753906 -3.414062 10.03125 -4.238281 10.03125 -5.3125 L 10.03125 -12.015625 Z M 12.515625 -12.015625 "/></g></g><g style="fill:#ffffff;fill-opacity:1;"><g transform="translate(693.858825, 499.565296)"><path style="stroke:none" d="M 0.8125 -6.015625 C 0.8125 -7.253906 1.0625 -8.34375 1.5625 -9.28125 C 2.0625 -10.21875 2.753906 -10.9375 3.640625 -11.4375 C 4.523438 -11.945312 5.539062 -12.203125 6.6875 -12.203125 C 8.144531 -12.203125 9.347656 -11.859375 10.296875 -11.171875 C 11.253906 -10.484375 11.898438 -9.5 12.234375 -8.21875 L 9.546875 -8.21875 C 9.328125 -8.8125 8.976562 -9.273438 8.5 -9.609375 C 8.019531 -9.941406 7.414062 -10.109375 6.6875 -10.109375 C 5.675781 -10.109375 4.867188 -9.75 4.265625 -9.03125 C 3.660156 -8.3125 3.359375 -7.304688 3.359375 -6.015625 C 3.359375 -4.722656 3.660156 -3.710938 4.265625 -2.984375 C 4.867188 -2.253906 5.675781 -1.890625 6.6875 -1.890625 C 8.125 -1.890625 9.078125 -2.523438 9.546875 -3.796875 L 12.234375 -3.796875 C 11.878906 -2.578125 11.222656 -1.601562 10.265625 -0.875 C 9.304688 -0.15625 8.113281 0.203125 6.6875 0.203125 C 5.539062 0.203125 4.523438 -0.0507812 3.640625 -0.5625 C 2.753906 -1.082031 2.0625 -1.8125 1.5625 -2.75 C 1.0625 -3.6875 0.8125 -4.773438 0.8125 -6.015625 Z M 0.8125 -6.015625 "/></g></g><g style="fill:#ffffff;fill-opacity:1;"><g transform="translate(707.914784, 499.565296)"><path style="stroke:none" d="M 0.8125 -6.0625 C 0.8125 -7.269531 1.0625 -8.335938 1.5625 -9.265625 C 2.0625 -10.191406 2.742188 -10.910156 3.609375 -11.421875 C 4.472656 -11.941406 5.425781 -12.203125 6.46875 -12.203125 C 7.414062 -12.203125 8.238281 -12.015625 8.9375 -11.640625 C 9.644531 -11.273438 10.210938 -10.816406 10.640625 -10.265625 L 10.640625 -12.015625 L 13.140625 -12.015625 L 13.140625 0 L 10.640625 0 L 10.640625 -1.78125 C 10.210938 -1.21875 9.632812 -0.742188 8.90625 -0.359375 C 8.1875 0.015625 7.363281 0.203125 6.4375 0.203125 C 5.394531 0.203125 4.445312 -0.0625 3.59375 -0.59375 C 2.738281 -1.125 2.0625 -1.863281 1.5625 -2.8125 C 1.0625 -3.769531 0.8125 -4.851562 0.8125 -6.0625 Z M 10.640625 -6.015625 C 10.640625 -6.847656 10.46875 -7.566406 10.125 -8.171875 C 9.78125 -8.785156 9.332031 -9.25 8.78125 -9.5625 C 8.226562 -9.882812 7.632812 -10.046875 7 -10.046875 C 6.351562 -10.046875 5.753906 -9.890625 5.203125 -9.578125 C 4.648438 -9.265625 4.203125 -8.804688 3.859375 -8.203125 C 3.523438 -7.597656 3.359375 -6.882812 3.359375 -6.0625 C 3.359375 -5.226562 3.523438 -4.5 3.859375 -3.875 C 4.203125 -3.25 4.65625 -2.773438 5.21875 -2.453125 C 5.78125 -2.128906 6.375 -1.96875 7 -1.96875 C 7.632812 -1.96875 8.226562 -2.125 8.78125 -2.4375 C 9.332031 -2.757812 9.78125 -3.226562 10.125 -3.84375 C 10.46875 -4.46875 10.640625 -5.191406 10.640625 -6.015625 Z M 10.640625 -6.015625 "/></g></g><g style="fill:#ffffff;fill-opacity:1;"><g transform="translate(723.67053, 499.565296)"><path style="stroke:none" d="M 4.53125 -9.984375 L 4.53125 -3.328125 C 4.53125 -2.878906 4.632812 -2.554688 4.84375 -2.359375 C 5.0625 -2.171875 5.421875 -2.078125 5.921875 -2.078125 L 7.453125 -2.078125 L 7.453125 0 L 5.5 0 C 4.375 0 3.515625 -0.257812 2.921875 -0.78125 C 2.328125 -1.300781 2.03125 -2.148438 2.03125 -3.328125 L 2.03125 -9.984375 L 0.609375 -9.984375 L 0.609375 -12.015625 L 2.03125 -12.015625 L 2.03125 -15 L 4.53125 -15 L 4.53125 -12.015625 L 7.453125 -12.015625 L 7.453125 -9.984375 Z M 4.53125 -9.984375 "/></g></g><g style="fill:#ffffff;fill-opacity:1;"><g transform="translate(732.757862, 499.565296)"><path style="stroke:none" d="M 2.90625 -13.59375 C 2.445312 -13.59375 2.066406 -13.742188 1.765625 -14.046875 C 1.460938 -14.359375 1.3125 -14.738281 1.3125 -15.1875 C 1.3125 -15.644531 1.460938 -16.023438 1.765625 -16.328125 C 2.066406 -16.628906 2.445312 -16.78125 2.90625 -16.78125 C 3.332031 -16.78125 3.695312 -16.628906 4 -16.328125 C 4.3125 -16.023438 4.46875 -15.644531 4.46875 -15.1875 C 4.46875 -14.738281 4.3125 -14.359375 4 -14.046875 C 3.695312 -13.742188 3.332031 -13.59375 2.90625 -13.59375 Z M 4.125 -12.015625 L 4.125 0 L 1.640625 0 L 1.640625 -12.015625 Z M 4.125 -12.015625 "/></g></g><g style="fill:#ffffff;fill-opacity:1;"><g transform="translate(739.491645, 499.565296)"><path style="stroke:none" d="M 6.84375 0.203125 C 5.707031 0.203125 4.679688 -0.0507812 3.765625 -0.5625 C 2.847656 -1.082031 2.128906 -1.8125 1.609375 -2.75 C 1.085938 -3.6875 0.828125 -4.773438 0.828125 -6.015625 C 0.828125 -7.234375 1.09375 -8.316406 1.625 -9.265625 C 2.164062 -10.210938 2.898438 -10.9375 3.828125 -11.4375 C 4.765625 -11.945312 5.804688 -12.203125 6.953125 -12.203125 C 8.097656 -12.203125 9.132812 -11.945312 10.0625 -11.4375 C 11 -10.9375 11.734375 -10.210938 12.265625 -9.265625 C 12.804688 -8.316406 13.078125 -7.234375 13.078125 -6.015625 C 13.078125 -4.796875 12.800781 -3.710938 12.25 -2.765625 C 11.695312 -1.816406 10.941406 -1.082031 9.984375 -0.5625 C 9.035156 -0.0507812 7.988281 0.203125 6.84375 0.203125 Z M 6.84375 -1.96875 C 7.476562 -1.96875 8.078125 -2.117188 8.640625 -2.421875 C 9.203125 -2.722656 9.65625 -3.175781 10 -3.78125 C 10.351562 -4.394531 10.53125 -5.140625 10.53125 -6.015625 C 10.53125 -6.890625 10.363281 -7.628906 10.03125 -8.234375 C 9.695312 -8.835938 9.253906 -9.289062 8.703125 -9.59375 C 8.148438 -9.894531 7.550781 -10.046875 6.90625 -10.046875 C 6.269531 -10.046875 5.675781 -9.894531 5.125 -9.59375 C 4.582031 -9.289062 4.148438 -8.835938 3.828125 -8.234375 C 3.515625 -7.628906 3.359375 -6.890625 3.359375 -6.015625 C 3.359375 -4.722656 3.6875 -3.722656 4.34375 -3.015625 C 5.007812 -2.316406 5.84375 -1.96875 6.84375 -1.96875 Z M 6.84375 -1.96875 "/></g></g><g style="fill:#ffffff;fill-opacity:1;"><g transform="translate(754.375689, 499.565296)"><path style="stroke:none" d="M 7.6875 -12.203125 C 8.632812 -12.203125 9.484375 -12.003906 10.234375 -11.609375 C 10.984375 -11.222656 11.566406 -10.644531 11.984375 -9.875 C 12.410156 -9.101562 12.625 -8.171875 12.625 -7.078125 L 12.625 0 L 10.15625 0 L 10.15625 -6.71875 C 10.15625 -7.789062 9.882812 -8.613281 9.34375 -9.1875 C 8.8125 -9.757812 8.082031 -10.046875 7.15625 -10.046875 C 6.21875 -10.046875 5.476562 -9.757812 4.9375 -9.1875 C 4.394531 -8.613281 4.125 -7.789062 4.125 -6.71875 L 4.125 0 L 1.640625 0 L 1.640625 -12.015625 L 4.125 -12.015625 L 4.125 -10.640625 C 4.53125 -11.128906 5.046875 -11.507812 5.671875 -11.78125 C 6.304688 -12.0625 6.976562 -12.203125 7.6875 -12.203125 Z M 7.6875 -12.203125 "/></g></g></g></svg>
